<svg width="97" height="29" viewBox="0 0 97 29" fill="none" xmlns="http://www.w3.org/2000/svg">
<rect x="1.5" y="1.5" width="94" height="26" rx="3.5" stroke="black" stroke-width="3"/>
<mask id="path-2-outside-1_5_21" maskUnits="userSpaceOnUse" x="9" y="8" width="78" height="14" fill="black">
<rect fill="white" x="9" y="8" width="78" height="14"/>
<path d="M20.1406 21H18.6875L17.5 17.8594H12.75L11.6328 21H10.1719L14.4688 9.79688H15.8281L20.1406 21ZM17.0703 16.6797L15.3125 11.9062C15.2552 11.75 15.1979 11.5 15.1406 11.1562H15.1094C15.0573 11.474 14.9974 11.724 14.9297 11.9062L13.1875 16.6797H17.0703ZM23.7375 19.8438H23.7063V21H22.425V9.15625H23.7063V14.4062H23.7375C24.3677 13.3438 25.2896 12.8125 26.5031 12.8125C27.5292 12.8125 28.3313 13.1719 28.9094 13.8906C29.4927 14.6042 29.7844 15.5625 29.7844 16.7656C29.7844 18.1042 29.4589 19.1771 28.8078 19.9844C28.1568 20.7865 27.2661 21.1875 26.1359 21.1875C25.0786 21.1875 24.2792 20.7396 23.7375 19.8438ZM23.7063 16.6172V17.7344C23.7063 18.3958 23.9198 18.9583 24.3469 19.4219C24.7792 19.8802 25.326 20.1094 25.9875 20.1094C26.7635 20.1094 27.3703 19.8125 27.8078 19.2188C28.2505 18.625 28.4719 17.7995 28.4719 16.7422C28.4719 15.8516 28.2661 15.1536 27.8547 14.6484C27.4432 14.1432 26.8859 13.8906 26.1828 13.8906C25.438 13.8906 24.8391 14.151 24.3859 14.6719C23.9328 15.1875 23.7063 15.8359 23.7063 16.6172ZM35.975 21.1875C34.7927 21.1875 33.8474 20.8151 33.1391 20.0703C32.4359 19.3203 32.0844 18.3281 32.0844 17.0938C32.0844 15.75 32.4516 14.7005 33.1859 13.9453C33.9203 13.1901 34.9125 12.8125 36.1625 12.8125C37.3552 12.8125 38.2849 13.1797 38.9516 13.9141C39.6234 14.6484 39.9594 15.6667 39.9594 16.9688C39.9594 18.2448 39.5974 19.2682 38.8734 20.0391C38.1547 20.8047 37.1885 21.1875 35.975 21.1875ZM36.0688 13.8906C35.2458 13.8906 34.5948 14.1719 34.1156 14.7344C33.6365 15.2917 33.3969 16.0625 33.3969 17.0469C33.3969 17.9948 33.6391 18.7422 34.1234 19.2891C34.6078 19.8359 35.2563 20.1094 36.0688 20.1094C36.8969 20.1094 37.5323 19.8411 37.975 19.3047C38.4229 18.7682 38.6469 18.0052 38.6469 17.0156C38.6469 16.0156 38.4229 15.2448 37.975 14.7031C37.5323 14.1615 36.8969 13.8906 36.0688 13.8906ZM49.275 21H47.9937V19.7344H47.9625C47.4312 20.7031 46.6083 21.1875 45.4937 21.1875C43.5875 21.1875 42.6344 20.0521 42.6344 17.7812V13H43.9078V17.5781C43.9078 19.2656 44.5536 20.1094 45.8453 20.1094C46.4703 20.1094 46.9833 19.8802 47.3844 19.4219C47.7906 18.9583 47.9937 18.3542 47.9937 17.6094V13H49.275V21ZM56.3797 20.9219C56.0776 21.0885 55.6792 21.1719 55.1844 21.1719C53.7833 21.1719 53.0828 20.3906 53.0828 18.8281V14.0938H51.7078V13H53.0828V11.0469L54.3641 10.6328V13H56.3797V14.0938H54.3641V18.6016C54.3641 19.138 54.4552 19.5208 54.6375 19.75C54.8198 19.9792 55.1219 20.0938 55.5438 20.0938C55.8667 20.0938 56.1453 20.0052 56.3797 19.8281V20.9219ZM75.675 21H74.3703V13.4844C74.3703 12.8906 74.4068 12.1641 74.4797 11.3047H74.4484C74.3234 11.8099 74.2115 12.1719 74.1125 12.3906L70.2844 21H69.6437L65.8234 12.4531C65.7141 12.2031 65.6021 11.8203 65.4875 11.3047H65.4562C65.4979 11.7526 65.5187 12.4844 65.5187 13.5V21H64.2531V9.79688H65.9875L69.425 17.6094C69.6906 18.2083 69.8625 18.6562 69.9406 18.9531H69.9875C70.2115 18.3385 70.3911 17.8802 70.5266 17.5781L74.0344 9.79688H75.675V21ZM85.6859 17.3203H80.0375C80.0583 18.2109 80.2979 18.8984 80.7562 19.3828C81.2146 19.8672 81.8448 20.1094 82.6469 20.1094C83.5479 20.1094 84.376 19.8125 85.1312 19.2188V20.4219C84.4281 20.9323 83.4984 21.1875 82.3422 21.1875C81.212 21.1875 80.324 20.8255 79.6781 20.1016C79.0323 19.3724 78.7094 18.349 78.7094 17.0312C78.7094 15.7865 79.0609 14.7734 79.7641 13.9922C80.4724 13.2057 81.35 12.8125 82.3969 12.8125C83.4437 12.8125 84.2536 13.151 84.8266 13.8281C85.3995 14.5052 85.6859 15.4453 85.6859 16.6484V17.3203ZM84.3734 16.2344C84.3682 15.4948 84.1885 14.9193 83.8344 14.5078C83.4854 14.0964 82.9984 13.8906 82.3734 13.8906C81.7693 13.8906 81.2562 14.1068 80.8344 14.5391C80.4125 14.9714 80.1521 15.5365 80.0531 16.2344H84.3734Z"/>
</mask>
<path d="M20.1406 21H18.6875L17.5 17.8594H12.75L11.6328 21H10.1719L14.4688 9.79688H15.8281L20.1406 21ZM17.0703 16.6797L15.3125 11.9062C15.2552 11.75 15.1979 11.5 15.1406 11.1562H15.1094C15.0573 11.474 14.9974 11.724 14.9297 11.9062L13.1875 16.6797H17.0703ZM23.7375 19.8438H23.7063V21H22.425V9.15625H23.7063V14.4062H23.7375C24.3677 13.3438 25.2896 12.8125 26.5031 12.8125C27.5292 12.8125 28.3313 13.1719 28.9094 13.8906C29.4927 14.6042 29.7844 15.5625 29.7844 16.7656C29.7844 18.1042 29.4589 19.1771 28.8078 19.9844C28.1568 20.7865 27.2661 21.1875 26.1359 21.1875C25.0786 21.1875 24.2792 20.7396 23.7375 19.8438ZM23.7063 16.6172V17.7344C23.7063 18.3958 23.9198 18.9583 24.3469 19.4219C24.7792 19.8802 25.326 20.1094 25.9875 20.1094C26.7635 20.1094 27.3703 19.8125 27.8078 19.2188C28.2505 18.625 28.4719 17.7995 28.4719 16.7422C28.4719 15.8516 28.2661 15.1536 27.8547 14.6484C27.4432 14.1432 26.8859 13.8906 26.1828 13.8906C25.438 13.8906 24.8391 14.151 24.3859 14.6719C23.9328 15.1875 23.7063 15.8359 23.7063 16.6172ZM35.975 21.1875C34.7927 21.1875 33.8474 20.8151 33.1391 20.0703C32.4359 19.3203 32.0844 18.3281 32.0844 17.0938C32.0844 15.75 32.4516 14.7005 33.1859 13.9453C33.9203 13.1901 34.9125 12.8125 36.1625 12.8125C37.3552 12.8125 38.2849 13.1797 38.9516 13.9141C39.6234 14.6484 39.9594 15.6667 39.9594 16.9688C39.9594 18.2448 39.5974 19.2682 38.8734 20.0391C38.1547 20.8047 37.1885 21.1875 35.975 21.1875ZM36.0688 13.8906C35.2458 13.8906 34.5948 14.1719 34.1156 14.7344C33.6365 15.2917 33.3969 16.0625 33.3969 17.0469C33.3969 17.9948 33.6391 18.7422 34.1234 19.2891C34.6078 19.8359 35.2563 20.1094 36.0688 20.1094C36.8969 20.1094 37.5323 19.8411 37.975 19.3047C38.4229 18.7682 38.6469 18.0052 38.6469 17.0156C38.6469 16.0156 38.4229 15.2448 37.975 14.7031C37.5323 14.1615 36.8969 13.8906 36.0688 13.8906ZM49.275 21H47.9937V19.7344H47.9625C47.4312 20.7031 46.6083 21.1875 45.4937 21.1875C43.5875 21.1875 42.6344 20.0521 42.6344 17.7812V13H43.9078V17.5781C43.9078 19.2656 44.5536 20.1094 45.8453 20.1094C46.4703 20.1094 46.9833 19.8802 47.3844 19.4219C47.7906 18.9583 47.9937 18.3542 47.9937 17.6094V13H49.275V21ZM56.3797 20.9219C56.0776 21.0885 55.6792 21.1719 55.1844 21.1719C53.7833 21.1719 53.0828 20.3906 53.0828 18.8281V14.0938H51.7078V13H53.0828V11.0469L54.3641 10.6328V13H56.3797V14.0938H54.3641V18.6016C54.3641 19.138 54.4552 19.5208 54.6375 19.75C54.8198 19.9792 55.1219 20.0938 55.5438 20.0938C55.8667 20.0938 56.1453 20.0052 56.3797 19.8281V20.9219ZM75.675 21H74.3703V13.4844C74.3703 12.8906 74.4068 12.1641 74.4797 11.3047H74.4484C74.3234 11.8099 74.2115 12.1719 74.1125 12.3906L70.2844 21H69.6437L65.8234 12.4531C65.7141 12.2031 65.6021 11.8203 65.4875 11.3047H65.4562C65.4979 11.7526 65.5187 12.4844 65.5187 13.5V21H64.2531V9.79688H65.9875L69.425 17.6094C69.6906 18.2083 69.8625 18.6562 69.9406 18.9531H69.9875C70.2115 18.3385 70.3911 17.8802 70.5266 17.5781L74.0344 9.79688H75.675V21ZM85.6859 17.3203H80.0375C80.0583 18.2109 80.2979 18.8984 80.7562 19.3828C81.2146 19.8672 81.8448 20.1094 82.6469 20.1094C83.5479 20.1094 84.376 19.8125 85.1312 19.2188V20.4219C84.4281 20.9323 83.4984 21.1875 82.3422 21.1875C81.212 21.1875 80.324 20.8255 79.6781 20.1016C79.0323 19.3724 78.7094 18.349 78.7094 17.0312C78.7094 15.7865 79.0609 14.7734 79.7641 13.9922C80.4724 13.2057 81.35 12.8125 82.3969 12.8125C83.4437 12.8125 84.2536 13.151 84.8266 13.8281C85.3995 14.5052 85.6859 15.4453 85.6859 16.6484V17.3203ZM84.3734 16.2344C84.3682 15.4948 84.1885 14.9193 83.8344 14.5078C83.4854 14.0964 82.9984 13.8906 82.3734 13.8906C81.7693 13.8906 81.2562 14.1068 80.8344 14.5391C80.4125 14.9714 80.1521 15.5365 80.0531 16.2344H84.3734Z" fill="black"/>
<path d="M20.1406 21V21.65H21.0873L20.7472 20.7665L20.1406 21ZM18.6875 21L18.0795 21.2299L18.2384 21.65H18.6875V21ZM17.5 17.8594L18.108 17.6295L17.9491 17.2094H17.5V17.8594ZM12.75 17.8594V17.2094H12.2913L12.1376 17.6415L12.75 17.8594ZM11.6328 21V21.65H12.0915L12.2452 21.2178L11.6328 21ZM10.1719 21L9.56498 20.7672L9.2264 21.65H10.1719V21ZM14.4688 9.79688V9.14688H14.0219L13.8619 9.56411L14.4688 9.79688ZM15.8281 9.79688L16.4347 9.56337L16.2744 9.14688H15.8281V9.79688ZM17.0703 16.6797V17.3297H18.0023L17.6803 16.4551L17.0703 16.6797ZM15.3125 11.9062L14.7022 12.13L14.7025 12.1309L15.3125 11.9062ZM15.1406 11.1562L15.7818 11.0494L15.6913 10.5063H15.1406V11.1562ZM15.1094 11.1562V10.5063H14.5573L14.4679 11.0511L15.1094 11.1562ZM14.9297 11.9062L14.3204 11.6799L14.3191 11.6834L14.9297 11.9062ZM13.1875 16.6797L12.5769 16.4568L12.2583 17.3297H13.1875V16.6797ZM20.1406 21V20.35H18.6875V21V21.65H20.1406V21ZM18.6875 21L19.2955 20.7701L18.108 17.6295L17.5 17.8594L16.892 18.0893L18.0795 21.2299L18.6875 21ZM17.5 17.8594V17.2094H12.75V17.8594V18.5094H17.5V17.8594ZM12.75 17.8594L12.1376 17.6415L11.0204 20.7822L11.6328 21L12.2452 21.2178L13.3624 18.0772L12.75 17.8594ZM11.6328 21V20.35H10.1719V21V21.65H11.6328V21ZM10.1719 21L10.7788 21.2328L15.0756 10.0296L14.4688 9.79688L13.8619 9.56411L9.56498 20.7672L10.1719 21ZM14.4688 9.79688V10.4469H15.8281V9.79688V9.14688H14.4688V9.79688ZM15.8281 9.79688L15.2215 10.0304L19.534 21.2335L20.1406 21L20.7472 20.7665L16.4347 9.56337L15.8281 9.79688ZM17.0703 16.6797L17.6803 16.4551L15.9225 11.6816L15.3125 11.9062L14.7025 12.1309L16.4604 16.9043L17.0703 16.6797ZM15.3125 11.9062L15.9228 11.6825C15.8875 11.5864 15.838 11.3867 15.7818 11.0494L15.1406 11.1562L14.4995 11.2631C14.5578 11.6133 14.6229 11.9136 14.7022 12.13L15.3125 11.9062ZM15.1406 11.1562V10.5063H15.1094V11.1562V11.8062H15.1406V11.1562ZM15.1094 11.1562L14.4679 11.0511C14.4188 11.3506 14.3671 11.554 14.3204 11.6799L14.9297 11.9062L15.539 12.1326C15.6277 11.8939 15.6957 11.5974 15.7508 11.2614L15.1094 11.1562ZM14.9297 11.9062L14.3191 11.6834L12.5769 16.4568L13.1875 16.6797L13.7981 16.9025L15.5403 12.1291L14.9297 11.9062ZM13.1875 16.6797V17.3297H17.0703V16.6797V16.0297H13.1875V16.6797ZM23.7375 19.8438L24.2937 19.5074L24.1041 19.1938H23.7375V19.8438ZM23.7063 19.8438V19.1938H23.0563V19.8438H23.7063ZM23.7063 21V21.65H24.3563V21H23.7063ZM22.425 21H21.775V21.65H22.425V21ZM22.425 9.15625V8.50625H21.775V9.15625H22.425ZM23.7063 9.15625H24.3563V8.50625H23.7063V9.15625ZM23.7063 14.4062H23.0563V15.0562H23.7063V14.4062ZM23.7375 14.4062V15.0562H24.1077L24.2966 14.7378L23.7375 14.4062ZM28.9094 13.8906L28.4029 14.298L28.4061 14.302L28.9094 13.8906ZM28.8078 19.9844L29.3125 20.394L29.3138 20.3924L28.8078 19.9844ZM24.3469 19.4219L23.8688 19.8623L23.874 19.8679L24.3469 19.4219ZM27.8078 19.2188L27.2867 18.8302L27.2845 18.8332L27.8078 19.2188ZM24.3859 14.6719L24.8742 15.101L24.8763 15.0985L24.3859 14.6719ZM23.7375 19.8438V19.1938H23.7063V19.8438V20.4937H23.7375V19.8438ZM23.7063 19.8438H23.0563V21H23.7063H24.3563V19.8438H23.7063ZM23.7063 21V20.35H22.425V21V21.65H23.7063V21ZM22.425 21H23.075V9.15625H22.425H21.775V21H22.425ZM22.425 9.15625V9.80625H23.7063V9.15625V8.50625H22.425V9.15625ZM23.7063 9.15625H23.0563V14.4062H23.7063H24.3563V9.15625H23.7063ZM23.7063 14.4062V15.0562H23.7375V14.4062V13.7563H23.7063V14.4062ZM23.7375 14.4062L24.2966 14.7378C24.8123 13.8684 25.5241 13.4625 26.5031 13.4625V12.8125V12.1625C25.0551 12.1625 23.9231 12.8191 23.1784 14.0747L23.7375 14.4062ZM26.5031 12.8125V13.4625C27.3574 13.4625 27.9631 13.7512 28.4029 14.298L28.9094 13.8906L29.4159 13.4832C28.6994 12.5925 27.7009 12.1625 26.5031 12.1625V12.8125ZM28.9094 13.8906L28.4061 14.302C28.8689 14.8681 29.1344 15.6661 29.1344 16.7656H29.7844H30.4344C30.4344 15.4589 30.1165 14.3403 29.4126 13.4792L28.9094 13.8906ZM29.7844 16.7656H29.1344C29.1344 17.9994 28.8355 18.9146 28.3018 19.5763L28.8078 19.9844L29.3138 20.3924C30.0822 19.4396 30.4344 18.2089 30.4344 16.7656H29.7844ZM28.8078 19.9844L28.3031 19.5747C27.7882 20.2092 27.0913 20.5375 26.1359 20.5375V21.1875V21.8375C27.441 21.8375 28.5254 21.3637 29.3125 20.394L28.8078 19.9844ZM26.1359 21.1875V20.5375C25.3034 20.5375 24.7162 20.2062 24.2937 19.5074L23.7375 19.8438L23.1813 20.1801C23.8421 21.273 24.8539 21.8375 26.1359 21.8375V21.1875ZM23.7063 16.6172H23.0563V17.7344H23.7063H24.3563V16.6172H23.7063ZM23.7063 17.7344H23.0563C23.0563 18.5502 23.3253 19.2724 23.8688 19.8623L24.3469 19.4219L24.8249 18.9814C24.5143 18.6443 24.3563 18.2415 24.3563 17.7344H23.7063ZM24.3469 19.4219L23.874 19.8679C24.4358 20.4635 25.1571 20.7594 25.9875 20.7594V20.1094V19.4594C25.495 19.4594 25.1225 19.2969 24.8197 18.9759L24.3469 19.4219ZM25.9875 20.1094V20.7594C26.9574 20.7594 27.7638 20.3743 28.3311 19.6043L27.8078 19.2188L27.2845 18.8332C26.9769 19.2507 26.5697 19.4594 25.9875 19.4594V20.1094ZM27.8078 19.2188L28.3289 19.6073C28.8843 18.8623 29.1219 17.8815 29.1219 16.7422H28.4719H27.8219C27.8219 17.7174 27.6167 18.3877 27.2867 18.8302L27.8078 19.2188ZM28.4719 16.7422H29.1219C29.1219 15.7566 28.8941 14.8954 28.3587 14.238L27.8547 14.6484L27.3507 15.0589C27.6382 15.4119 27.8219 15.9465 27.8219 16.7422H28.4719ZM27.8547 14.6484L28.3587 14.238C27.813 13.568 27.0637 13.2406 26.1828 13.2406V13.8906V14.5406C26.7082 14.5406 27.0734 14.7185 27.3507 15.0589L27.8547 14.6484ZM26.1828 13.8906V13.2406C25.2667 13.2406 24.4827 13.5703 23.8955 14.2452L24.3859 14.6719L24.8763 15.0985C25.1954 14.7318 25.6093 14.5406 26.1828 14.5406V13.8906ZM24.3859 14.6719L23.8977 14.2428C23.3259 14.8934 23.0563 15.7013 23.0563 16.6172H23.7063H24.3563C24.3563 15.9706 24.5397 15.4816 24.8742 15.1009L24.3859 14.6719ZM33.1391 20.0703L32.6649 20.5149L32.6681 20.5183L33.1391 20.0703ZM38.9516 13.9141L38.4703 14.351L38.472 14.3528L38.9516 13.9141ZM38.8734 20.0391L38.3996 19.5941L38.3995 19.5942L38.8734 20.0391ZM34.1156 14.7344L34.6085 15.1582L34.6104 15.1559L34.1156 14.7344ZM37.975 19.3047L37.476 18.8881L37.4737 18.891L37.975 19.3047ZM37.975 14.7031L37.4717 15.1145L37.4741 15.1173L37.975 14.7031ZM35.975 21.1875V20.5375C34.9415 20.5375 34.1769 20.2184 33.6101 19.6224L33.1391 20.0703L32.6681 20.5183C33.5179 21.4118 34.6439 21.8375 35.975 21.8375V21.1875ZM33.1391 20.0703L33.6133 19.6258C33.045 19.0196 32.7344 18.1981 32.7344 17.0938H32.0844H31.4344C31.4344 18.4581 31.8269 19.621 32.6649 20.5149L33.1391 20.0703ZM32.0844 17.0938H32.7344C32.7344 15.8705 33.0656 15.0014 33.6519 14.3985L33.1859 13.9453L32.7199 13.4922C31.8375 14.3997 31.4344 15.6295 31.4344 17.0938H32.0844ZM33.1859 13.9453L33.6519 14.3985C34.2413 13.7924 35.0527 13.4625 36.1625 13.4625V12.8125V12.1625C34.7723 12.1625 33.5993 12.5878 32.7199 13.4922L33.1859 13.9453ZM36.1625 12.8125V13.4625C37.2122 13.4625 37.9516 13.7795 38.4703 14.351L38.9516 13.9141L39.4328 13.4772C38.6182 12.5798 37.4982 12.1625 36.1625 12.1625V12.8125ZM38.9516 13.9141L38.472 14.3528C39.0039 14.9342 39.3094 15.7777 39.3094 16.9688H39.9594H40.6094C40.6094 15.5556 40.243 14.3627 39.4311 13.4753L38.9516 13.9141ZM39.9594 16.9688H39.3094C39.3094 18.1156 38.9879 18.9678 38.3996 19.5941L38.8734 20.0391L39.3472 20.484C40.2069 19.5687 40.6094 18.374 40.6094 16.9688H39.9594ZM38.8734 20.0391L38.3995 19.5942C37.8231 20.2082 37.0396 20.5375 35.975 20.5375V21.1875V21.8375C37.3375 21.8375 38.4863 21.4012 39.3473 20.4839L38.8734 20.0391ZM36.0688 13.8906V13.2406C35.0797 13.2406 34.2384 13.5878 33.6208 14.3129L34.1156 14.7344L34.6104 15.1559C34.9511 14.7559 35.4119 14.5406 36.0688 14.5406V13.8906ZM34.1156 14.7344L33.6228 14.3106C33.0122 15.0207 32.7469 15.9602 32.7469 17.0469H33.3969H34.0469C34.0469 16.1648 34.2607 15.5626 34.6085 15.1581L34.1156 14.7344ZM33.3969 17.0469H32.7469C32.7469 18.1052 33.019 19.0225 33.6369 19.72L34.1234 19.2891L34.61 18.8581C34.2591 18.4619 34.0469 17.8844 34.0469 17.0469H33.3969ZM34.1234 19.2891L33.6369 19.72C34.2593 20.4228 35.0935 20.7594 36.0688 20.7594V20.1094V19.4594C35.419 19.4594 34.9564 19.2491 34.61 18.8581L34.1234 19.2891ZM36.0688 20.1094V20.7594C37.0499 20.7594 37.8862 20.4335 38.4763 19.7184L37.975 19.3047L37.4737 18.891C37.1783 19.2488 36.7438 19.4594 36.0688 19.4594V20.1094ZM37.975 19.3047L38.4739 19.7213C39.0531 19.0276 39.2969 18.0951 39.2969 17.0156H38.6469H37.9969C37.9969 17.9153 37.7927 18.5088 37.4761 18.8881L37.975 19.3047ZM38.6469 17.0156H39.2969C39.2969 15.9272 39.0538 14.9877 38.4759 14.2889L37.975 14.7031L37.4741 15.1173C37.7921 15.5019 37.9969 16.1041 37.9969 17.0156H38.6469ZM37.975 14.7031L38.4783 14.2918C37.8889 13.5707 37.0521 13.2406 36.0688 13.2406V13.8906V14.5406C36.7417 14.5406 37.1756 14.7522 37.4717 15.1145L37.975 14.7031ZM49.275 21V21.65H49.925V21H49.275ZM47.9937 21H47.3437V21.65H47.9937V21ZM47.9937 19.7344H48.6437V19.0844H47.9937V19.7344ZM47.9625 19.7344V19.0844H47.5776L47.3926 19.4218L47.9625 19.7344ZM42.6344 13V12.35H41.9844V13H42.6344ZM43.9078 13H44.5578V12.35H43.9078V13ZM47.3844 19.4219L46.8955 18.9935L46.8952 18.9938L47.3844 19.4219ZM47.9937 13V12.35H47.3437V13H47.9937ZM49.275 13H49.925V12.35H49.275V13ZM49.275 21V20.35H47.9937V21V21.65H49.275V21ZM47.9937 21H48.6437V19.7344H47.9937H47.3437V21H47.9937ZM47.9937 19.7344V19.0844H47.9625V19.7344V20.3844H47.9937V19.7344ZM47.9625 19.7344L47.3926 19.4218C47.1743 19.8199 46.9127 20.0901 46.6172 20.2641C46.3213 20.4382 45.9547 20.5375 45.4937 20.5375V21.1875V21.8375C46.1474 21.8375 46.7496 21.6946 47.2766 21.3844C47.8039 21.074 48.2195 20.6176 48.5324 20.0469L47.9625 19.7344ZM45.4937 21.1875V20.5375C44.6736 20.5375 44.1666 20.2986 43.8471 19.918C43.5093 19.5156 43.2844 18.8415 43.2844 17.7812H42.6344H41.9844C41.9844 18.9918 42.2361 20.0208 42.8514 20.7539C43.485 21.5086 44.4077 21.8375 45.4937 21.8375V21.1875ZM42.6344 17.7812H43.2844V13H42.6344H41.9844V17.7812H42.6344ZM42.6344 13V13.65H43.9078V13V12.35H42.6344V13ZM43.9078 13H43.2578V17.5781H43.9078H44.5578V13H43.9078ZM43.9078 17.5781H43.2578C43.2578 18.4865 43.4285 19.2869 43.876 19.8716C44.3488 20.4893 45.0458 20.7594 45.8453 20.7594V20.1094V19.4594C45.3532 19.4594 45.0814 19.3076 44.9083 19.0815C44.7101 18.8225 44.5578 18.3573 44.5578 17.5781H43.9078ZM45.8453 20.1094V20.7594C46.6521 20.7594 47.3454 20.4535 47.8735 19.8499L47.3844 19.4219L46.8952 18.9938C46.6212 19.3069 46.2885 19.4594 45.8453 19.4594V20.1094ZM47.3844 19.4219L47.8732 19.8503C48.404 19.2447 48.6437 18.4774 48.6437 17.6094H47.9937H47.3437C47.3437 18.2309 47.1773 18.672 46.8955 18.9935L47.3844 19.4219ZM47.9937 17.6094H48.6437V13H47.9937H47.3437V17.6094H47.9937ZM47.9937 13V13.65H49.275V13V12.35H47.9937V13ZM49.275 13H48.625V21H49.275H49.925V13H49.275ZM56.3797 20.9219L56.6937 21.491L57.0297 21.3056V20.9219H56.3797ZM53.0828 14.0938H53.7328V13.4438H53.0828V14.0938ZM51.7078 14.0938H51.0578V14.7437H51.7078V14.0938ZM51.7078 13V12.35H51.0578V13H51.7078ZM53.0828 13V13.65H53.7328V13H53.0828ZM53.0828 11.0469L52.8829 10.4284L52.4328 10.5738V11.0469H53.0828ZM54.3641 10.6328H55.0141V9.73965L54.1642 10.0143L54.3641 10.6328ZM54.3641 13H53.7141V13.65H54.3641V13ZM56.3797 13H57.0297V12.35H56.3797V13ZM56.3797 14.0938V14.7437H57.0297V14.0938H56.3797ZM54.3641 14.0938V13.4438H53.7141V14.0938H54.3641ZM56.3797 19.8281H57.0297V18.5223L55.9878 19.3095L56.3797 19.8281ZM56.3797 20.9219L56.0657 20.3527C55.8925 20.4483 55.6141 20.5219 55.1844 20.5219V21.1719V21.8219C55.7443 21.8219 56.2627 21.7288 56.6937 21.491L56.3797 20.9219ZM55.1844 21.1719V20.5219C54.6035 20.5219 54.2815 20.3632 54.0921 20.152C53.8907 19.9273 53.7328 19.5256 53.7328 18.8281H53.0828H52.4328C52.4328 19.6931 52.6252 20.4633 53.1243 21.0199C53.6354 21.59 54.3642 21.8219 55.1844 21.8219V21.1719ZM53.0828 18.8281H53.7328V14.0938H53.0828H52.4328V18.8281H53.0828ZM53.0828 14.0938V13.4438H51.7078V14.0938V14.7437H53.0828V14.0938ZM51.7078 14.0938H52.3578V13H51.7078H51.0578V14.0938H51.7078ZM51.7078 13V13.65H53.0828V13V12.35H51.7078V13ZM53.0828 13H53.7328V11.0469H53.0828H52.4328V13H53.0828ZM53.0828 11.0469L53.2827 11.6654L54.5639 11.2513L54.3641 10.6328L54.1642 10.0143L52.8829 10.4284L53.0828 11.0469ZM54.3641 10.6328H53.7141V13H54.3641H55.0141V10.6328H54.3641ZM54.3641 13V13.65H56.3797V13V12.35H54.3641V13ZM56.3797 13H55.7297V14.0938H56.3797H57.0297V13H56.3797ZM56.3797 14.0938V13.4438H54.3641V14.0938V14.7437H56.3797V14.0938ZM54.3641 14.0938H53.7141V18.6016H54.3641H55.0141V14.0938H54.3641ZM54.3641 18.6016H53.7141C53.7141 19.1776 53.8052 19.7479 54.1288 20.1546L54.6375 19.75L55.1462 19.3454C55.1052 19.2938 55.0141 19.0985 55.0141 18.6016H54.3641ZM54.6375 19.75L54.1288 20.1546C54.4817 20.5983 55.0148 20.7437 55.5438 20.7437V20.0938V19.4438C55.229 19.4438 55.1579 19.3601 55.1462 19.3454L54.6375 19.75ZM55.5438 20.0938V20.7437C55.9933 20.7437 56.413 20.6176 56.7715 20.3467L56.3797 19.8281L55.9878 19.3095C55.8776 19.3928 55.7401 19.4438 55.5438 19.4438V20.0938ZM56.3797 19.8281H55.7297V20.9219H56.3797H57.0297V19.8281H56.3797ZM75.675 21V21.65H76.325V21H75.675ZM74.3703 21H73.7203V21.65H74.3703V21ZM74.4797 11.3047L75.1274 11.3596L75.1872 10.6547H74.4797V11.3047ZM74.4484 11.3047V10.6547H73.9397L73.8175 11.1486L74.4484 11.3047ZM74.1125 12.3906L73.5203 12.1227L73.5186 12.1265L74.1125 12.3906ZM70.2844 21V21.65H70.7067L70.8783 21.2641L70.2844 21ZM69.6437 21L69.0503 21.2652L69.2223 21.65H69.6437V21ZM65.8234 12.4531L65.2279 12.7137L65.23 12.7184L65.8234 12.4531ZM65.4875 11.3047L66.122 11.1637L66.0089 10.6547H65.4875V11.3047ZM65.4562 11.3047V10.6547H64.743L64.809 11.3649L65.4562 11.3047ZM65.5187 21V21.65H66.1687V21H65.5187ZM64.2531 21H63.6031V21.65H64.2531V21ZM64.2531 9.79688V9.14688H63.6031V9.79688H64.2531ZM65.9875 9.79688L66.5825 9.53509L66.4116 9.14688H65.9875V9.79688ZM69.425 17.6094L68.83 17.8712L68.8308 17.8729L69.425 17.6094ZM69.9406 18.9531L69.312 19.1185L69.4395 19.6031H69.9406V18.9531ZM69.9875 18.9531V19.6031H70.4424L70.5982 19.1757L69.9875 18.9531ZM70.5266 17.5781L69.934 17.311L69.9334 17.3122L70.5266 17.5781ZM74.0344 9.79688V9.14688H73.6144L73.4418 9.52974L74.0344 9.79688ZM75.675 9.79688H76.325V9.14688H75.675V9.79688ZM75.675 21V20.35H74.3703V21V21.65H75.675V21ZM74.3703 21H75.0203V13.4844H74.3703H73.7203V21H74.3703ZM74.3703 13.4844H75.0203C75.0203 12.9151 75.0554 12.2081 75.1274 11.3596L74.4797 11.3047L73.832 11.2497C73.7582 12.12 73.7203 12.8661 73.7203 13.4844H74.3703ZM74.4797 11.3047V10.6547H74.4484V11.3047V11.9547H74.4797V11.3047ZM74.4484 11.3047L73.8175 11.1486C73.6936 11.6491 73.5931 11.9618 73.5203 12.1227L74.1125 12.3906L74.7047 12.6585C74.8298 12.382 74.9533 11.9707 75.0794 11.4608L74.4484 11.3047ZM74.1125 12.3906L73.5186 12.1265L69.6904 20.7359L70.2844 21L70.8783 21.2641L74.7064 12.6547L74.1125 12.3906ZM70.2844 21V20.35H69.6437V21V21.65H70.2844V21ZM69.6437 21L70.2372 20.7348L66.4169 12.1879L65.8234 12.4531L65.23 12.7184L69.0503 21.2652L69.6437 21ZM65.8234 12.4531L66.4189 12.1926C66.3355 12.0018 66.2343 11.6688 66.122 11.1637L65.4875 11.3047L64.853 11.4457C64.9699 11.9718 65.0926 12.4044 65.2279 12.7137L65.8234 12.4531ZM65.4875 11.3047V10.6547H65.4562V11.3047V11.9547H65.4875V11.3047ZM65.4562 11.3047L64.809 11.3649C64.8477 11.7803 64.8687 12.4859 64.8687 13.5H65.5187H66.1687C66.1687 12.4828 66.1481 11.7249 66.1035 11.2445L65.4562 11.3047ZM65.5187 13.5H64.8687V21H65.5187H66.1687V13.5H65.5187ZM65.5187 21V20.35H64.2531V21V21.65H65.5187V21ZM64.2531 21H64.9031V9.79688H64.2531H63.6031V21H64.2531ZM64.2531 9.79688V10.4469H65.9875V9.79688V9.14688H64.2531V9.79688ZM65.9875 9.79688L65.3925 10.0587L68.83 17.8712L69.425 17.6094L70.02 17.3476L66.5825 9.53509L65.9875 9.79688ZM69.425 17.6094L68.8308 17.8729C69.0944 18.4674 69.248 18.8752 69.312 19.1185L69.9406 18.9531L70.5692 18.7877C70.477 18.4373 70.2868 17.9493 70.0192 17.3459L69.425 17.6094ZM69.9406 18.9531V19.6031H69.9875V18.9531V18.3031H69.9406V18.9531ZM69.9875 18.9531L70.5982 19.1757C70.8209 18.5645 70.9942 18.1241 71.1197 17.844L70.5266 17.5781L69.9334 17.3122C69.7881 17.6364 69.602 18.1125 69.3768 18.7306L69.9875 18.9531ZM70.5266 17.5781L71.1191 17.8453L74.6269 10.064L74.0344 9.79688L73.4418 9.52974L69.934 17.311L70.5266 17.5781ZM74.0344 9.79688V10.4469H75.675V9.79688V9.14688H74.0344V9.79688ZM75.675 9.79688H75.025V21H75.675H76.325V9.79688H75.675ZM85.6859 17.3203V17.9703H86.3359V17.3203H85.6859ZM80.0375 17.3203V16.6703H79.3721L79.3877 17.3355L80.0375 17.3203ZM85.1312 19.2188H85.7812V17.8809L84.7295 18.7078L85.1312 19.2188ZM85.1312 20.4219L85.5131 20.9479L85.7812 20.7532V20.4219H85.1312ZM79.6781 20.1016L79.1915 20.5325L79.1931 20.5343L79.6781 20.1016ZM79.7641 13.9922L79.2811 13.5572L79.2809 13.5574L79.7641 13.9922ZM84.3734 16.2344V16.8844H85.028L85.0234 16.2298L84.3734 16.2344ZM83.8344 14.5078L83.3386 14.9282L83.3417 14.9319L83.8344 14.5078ZM80.0531 16.2344L79.4096 16.1431L79.3045 16.8844H80.0531V16.2344ZM85.6859 17.3203V16.6703H80.0375V17.3203V17.9703H85.6859V17.3203ZM80.0375 17.3203L79.3877 17.3355C79.411 18.3321 79.6825 19.1937 80.2841 19.8296L80.7562 19.3828L81.2284 18.9361C80.9134 18.6032 80.7057 18.0898 80.6873 17.3051L80.0375 17.3203ZM80.7562 19.3828L80.2841 19.8296C80.8897 20.4696 81.7053 20.7594 82.6469 20.7594V20.1094V19.4594C81.9843 19.4594 81.5395 19.2648 81.2284 18.9361L80.7562 19.3828ZM82.6469 20.1094V20.7594C83.7036 20.7594 84.6714 20.4072 85.533 19.7297L85.1312 19.2188L84.7295 18.7078C84.0807 19.2178 83.3922 19.4594 82.6469 19.4594V20.1094ZM85.1312 19.2188H84.4812V20.4219H85.1312H85.7812V19.2188H85.1312ZM85.1312 20.4219L84.7494 19.8959C84.1888 20.3028 83.4062 20.5375 82.3422 20.5375V21.1875V21.8375C83.5907 21.8375 84.6674 21.5618 85.5131 20.9479L85.1312 20.4219ZM82.3422 21.1875V20.5375C81.3636 20.5375 80.6649 20.2313 80.1632 19.6689L79.6781 20.1016L79.1931 20.5343C79.983 21.4197 81.0604 21.8375 82.3422 21.8375V21.1875ZM79.6781 20.1016L80.1647 19.6706C79.6564 19.0967 79.3594 18.2467 79.3594 17.0312H78.7094H78.0594C78.0594 18.4512 78.4081 19.6481 79.1915 20.5325L79.6781 20.1016ZM78.7094 17.0312H79.3594C79.3594 15.9157 79.6707 15.0675 80.2472 14.427L79.7641 13.9922L79.2809 13.5574C78.4511 14.4794 78.0594 15.6572 78.0594 17.0312H78.7094ZM79.7641 13.9922L80.247 14.4272C80.8337 13.7759 81.5365 13.4625 82.3969 13.4625V12.8125V12.1625C81.1635 12.1625 80.1111 12.6356 79.2811 13.5572L79.7641 13.9922ZM82.3969 12.8125V13.4625C83.2907 13.4625 83.9036 13.7437 84.3304 14.248L84.8266 13.8281L85.3228 13.4083C84.6037 12.5584 83.5968 12.1625 82.3969 12.1625V12.8125ZM84.8266 13.8281L84.3304 14.248C84.7735 14.7717 85.0359 15.5441 85.0359 16.6484H85.6859H86.3359C86.3359 15.3465 86.0255 14.2387 85.3228 13.4083L84.8266 13.8281ZM85.6859 16.6484H85.0359V17.3203H85.6859H86.3359V16.6484H85.6859ZM84.3734 16.2344L85.0234 16.2298C85.0175 15.392 84.8129 14.6483 84.327 14.0838L83.8344 14.5078L83.3417 14.9319C83.5641 15.1902 83.7189 15.5975 83.7235 16.239L84.3734 16.2344ZM83.8344 14.5078L84.3301 14.0874C83.8374 13.5065 83.1557 13.2406 82.3734 13.2406V13.8906V14.5406C82.8411 14.5406 83.1334 14.6862 83.3386 14.9282L83.8344 14.5078ZM82.3734 13.8906V13.2406C81.5942 13.2406 80.9134 13.5274 80.3692 14.0851L80.8344 14.5391L81.2996 14.993C81.5991 14.6861 81.9444 14.5406 82.3734 14.5406V13.8906ZM80.8344 14.5391L80.3692 14.0851C79.8354 14.6321 79.5246 15.332 79.4096 16.1431L80.0531 16.2344L80.6967 16.3256C80.7796 15.7409 80.9896 15.3106 81.2996 14.993L80.8344 14.5391ZM80.0531 16.2344V16.8844H84.3734V16.2344V15.5844H80.0531V16.2344Z" fill="black" mask="url(#path-2-outside-1_5_21)"/>
</svg>
