<svg width="97" height="29" viewBox="0 0 97 29" fill="none" xmlns="http://www.w3.org/2000/svg">
<mask id="path-1-outside-1_5_23" maskUnits="userSpaceOnUse" x="18" y="8" width="60" height="14" fill="black">
<rect fill="white" x="18" y="8" width="60" height="14"/>
<path d="M27.0938 20.5312C26.2656 20.9688 25.2344 21.1875 24 21.1875C22.4062 21.1875 21.1302 20.6745 20.1719 19.6484C19.2135 18.6224 18.7344 17.276 18.7344 15.6094C18.7344 13.8177 19.2734 12.3698 20.3516 11.2656C21.4297 10.1615 22.7969 9.60938 24.4531 9.60938C25.5156 9.60938 26.3958 9.76302 27.0938 10.0703V11.4688C26.2917 11.0208 25.4062 10.7969 24.4375 10.7969C23.151 10.7969 22.1068 11.2266 21.3047 12.0859C20.5078 12.9453 20.1094 14.0938 20.1094 15.5312C20.1094 16.8958 20.4818 17.9844 21.2266 18.7969C21.9766 19.6042 22.9583 20.0078 24.1719 20.0078C25.2969 20.0078 26.2708 19.7578 27.0938 19.2578V20.5312ZM33.3469 21.1875C32.1646 21.1875 31.2193 20.8151 30.5109 20.0703C29.8078 19.3203 29.4563 18.3281 29.4563 17.0938C29.4563 15.75 29.8234 14.7005 30.5578 13.9453C31.2922 13.1901 32.2844 12.8125 33.5344 12.8125C34.7271 12.8125 35.6568 13.1797 36.3234 13.9141C36.9953 14.6484 37.3313 15.6667 37.3313 16.9688C37.3313 18.2448 36.9693 19.2682 36.2453 20.0391C35.5266 20.8047 34.5604 21.1875 33.3469 21.1875ZM33.4406 13.8906C32.6177 13.8906 31.9667 14.1719 31.4875 14.7344C31.0083 15.2917 30.7688 16.0625 30.7688 17.0469C30.7688 17.9948 31.0109 18.7422 31.4953 19.2891C31.9797 19.8359 32.6281 20.1094 33.4406 20.1094C34.2688 20.1094 34.9042 19.8411 35.3469 19.3047C35.7948 18.7682 36.0188 18.0052 36.0188 17.0156C36.0188 16.0156 35.7948 15.2448 35.3469 14.7031C34.9042 14.1615 34.2688 13.8906 33.4406 13.8906ZM46.8188 21H45.5375V16.4375C45.5375 14.7396 44.9177 13.8906 43.6781 13.8906C43.0375 13.8906 42.5063 14.1328 42.0844 14.6172C41.6677 15.0964 41.4594 15.7031 41.4594 16.4375V21H40.1781V13H41.4594V14.3281H41.4906C42.0948 13.3177 42.9698 12.8125 44.1156 12.8125C44.9906 12.8125 45.6599 13.0964 46.1234 13.6641C46.587 14.2266 46.8188 15.0417 46.8188 16.1094V21ZM53.7516 20.9219C53.4495 21.0885 53.051 21.1719 52.5562 21.1719C51.1552 21.1719 50.4547 20.3906 50.4547 18.8281V14.0938H49.0797V13H50.4547V11.0469L51.7359 10.6328V13H53.7516V14.0938H51.7359V18.6016C51.7359 19.138 51.8271 19.5208 52.0094 19.75C52.1917 19.9792 52.4937 20.0938 52.9156 20.0938C53.2385 20.0938 53.5172 20.0052 53.7516 19.8281V20.9219ZM61.9891 21H60.7078V19.75H60.6766C60.1193 20.7083 59.299 21.1875 58.2156 21.1875C57.4188 21.1875 56.7938 20.9766 56.3406 20.5547C55.8927 20.1328 55.6688 19.5729 55.6688 18.875C55.6688 17.3802 56.549 16.5104 58.3094 16.2656L60.7078 15.9297C60.7078 14.5703 60.1583 13.8906 59.0594 13.8906C58.0958 13.8906 57.226 14.2188 56.45 14.875V13.5625C57.2365 13.0625 58.1427 12.8125 59.1688 12.8125C61.049 12.8125 61.9891 13.8073 61.9891 15.7969V21ZM60.7078 16.9531L58.7781 17.2188C58.1844 17.3021 57.7365 17.4505 57.4344 17.6641C57.1323 17.8724 56.9813 18.2448 56.9813 18.7812C56.9813 19.1719 57.1193 19.4922 57.3953 19.7422C57.6766 19.987 58.049 20.1094 58.5125 20.1094C59.1479 20.1094 59.6714 19.888 60.0828 19.4453C60.4995 18.9974 60.7078 18.4323 60.7078 17.75V16.9531ZM70.6562 20.6328C70.0417 21.0026 69.3125 21.1875 68.4688 21.1875C67.3281 21.1875 66.4062 20.8177 65.7031 20.0781C65.0052 19.3333 64.6562 18.3698 64.6562 17.1875C64.6562 15.8698 65.0339 14.8125 65.7891 14.0156C66.5443 13.2135 67.5521 12.8125 68.8125 12.8125C69.5156 12.8125 70.1354 12.9427 70.6719 13.2031V14.5156C70.0781 14.099 69.4427 13.8906 68.7656 13.8906C67.9479 13.8906 67.276 14.1849 66.75 14.7734C66.2292 15.3568 65.9688 16.125 65.9688 17.0781C65.9688 18.0156 66.2135 18.7552 66.7031 19.2969C67.1979 19.8385 67.8594 20.1094 68.6875 20.1094C69.3854 20.1094 70.0417 19.8776 70.6562 19.4141V20.6328ZM77.1047 20.9219C76.8026 21.0885 76.4042 21.1719 75.9094 21.1719C74.5083 21.1719 73.8078 20.3906 73.8078 18.8281V14.0938H72.4328V13H73.8078V11.0469L75.0891 10.6328V13H77.1047V14.0938H75.0891V18.6016C75.0891 19.138 75.1802 19.5208 75.3625 19.75C75.5448 19.9792 75.8469 20.0938 76.2687 20.0938C76.5917 20.0938 76.8703 20.0052 77.1047 19.8281V20.9219Z"/>
</mask>
<path d="M27.0938 20.5312C26.2656 20.9688 25.2344 21.1875 24 21.1875C22.4062 21.1875 21.1302 20.6745 20.1719 19.6484C19.2135 18.6224 18.7344 17.276 18.7344 15.6094C18.7344 13.8177 19.2734 12.3698 20.3516 11.2656C21.4297 10.1615 22.7969 9.60938 24.4531 9.60938C25.5156 9.60938 26.3958 9.76302 27.0938 10.0703V11.4688C26.2917 11.0208 25.4062 10.7969 24.4375 10.7969C23.151 10.7969 22.1068 11.2266 21.3047 12.0859C20.5078 12.9453 20.1094 14.0938 20.1094 15.5312C20.1094 16.8958 20.4818 17.9844 21.2266 18.7969C21.9766 19.6042 22.9583 20.0078 24.1719 20.0078C25.2969 20.0078 26.2708 19.7578 27.0938 19.2578V20.5312ZM33.3469 21.1875C32.1646 21.1875 31.2193 20.8151 30.5109 20.0703C29.8078 19.3203 29.4563 18.3281 29.4563 17.0938C29.4563 15.75 29.8234 14.7005 30.5578 13.9453C31.2922 13.1901 32.2844 12.8125 33.5344 12.8125C34.7271 12.8125 35.6568 13.1797 36.3234 13.9141C36.9953 14.6484 37.3313 15.6667 37.3313 16.9688C37.3313 18.2448 36.9693 19.2682 36.2453 20.0391C35.5266 20.8047 34.5604 21.1875 33.3469 21.1875ZM33.4406 13.8906C32.6177 13.8906 31.9667 14.1719 31.4875 14.7344C31.0083 15.2917 30.7688 16.0625 30.7688 17.0469C30.7688 17.9948 31.0109 18.7422 31.4953 19.2891C31.9797 19.8359 32.6281 20.1094 33.4406 20.1094C34.2688 20.1094 34.9042 19.8411 35.3469 19.3047C35.7948 18.7682 36.0188 18.0052 36.0188 17.0156C36.0188 16.0156 35.7948 15.2448 35.3469 14.7031C34.9042 14.1615 34.2688 13.8906 33.4406 13.8906ZM46.8188 21H45.5375V16.4375C45.5375 14.7396 44.9177 13.8906 43.6781 13.8906C43.0375 13.8906 42.5063 14.1328 42.0844 14.6172C41.6677 15.0964 41.4594 15.7031 41.4594 16.4375V21H40.1781V13H41.4594V14.3281H41.4906C42.0948 13.3177 42.9698 12.8125 44.1156 12.8125C44.9906 12.8125 45.6599 13.0964 46.1234 13.6641C46.587 14.2266 46.8188 15.0417 46.8188 16.1094V21ZM53.7516 20.9219C53.4495 21.0885 53.051 21.1719 52.5562 21.1719C51.1552 21.1719 50.4547 20.3906 50.4547 18.8281V14.0938H49.0797V13H50.4547V11.0469L51.7359 10.6328V13H53.7516V14.0938H51.7359V18.6016C51.7359 19.138 51.8271 19.5208 52.0094 19.75C52.1917 19.9792 52.4937 20.0938 52.9156 20.0938C53.2385 20.0938 53.5172 20.0052 53.7516 19.8281V20.9219ZM61.9891 21H60.7078V19.75H60.6766C60.1193 20.7083 59.299 21.1875 58.2156 21.1875C57.4188 21.1875 56.7938 20.9766 56.3406 20.5547C55.8927 20.1328 55.6688 19.5729 55.6688 18.875C55.6688 17.3802 56.549 16.5104 58.3094 16.2656L60.7078 15.9297C60.7078 14.5703 60.1583 13.8906 59.0594 13.8906C58.0958 13.8906 57.226 14.2188 56.45 14.875V13.5625C57.2365 13.0625 58.1427 12.8125 59.1688 12.8125C61.049 12.8125 61.9891 13.8073 61.9891 15.7969V21ZM60.7078 16.9531L58.7781 17.2188C58.1844 17.3021 57.7365 17.4505 57.4344 17.6641C57.1323 17.8724 56.9813 18.2448 56.9813 18.7812C56.9813 19.1719 57.1193 19.4922 57.3953 19.7422C57.6766 19.987 58.049 20.1094 58.5125 20.1094C59.1479 20.1094 59.6714 19.888 60.0828 19.4453C60.4995 18.9974 60.7078 18.4323 60.7078 17.75V16.9531ZM70.6562 20.6328C70.0417 21.0026 69.3125 21.1875 68.4688 21.1875C67.3281 21.1875 66.4062 20.8177 65.7031 20.0781C65.0052 19.3333 64.6562 18.3698 64.6562 17.1875C64.6562 15.8698 65.0339 14.8125 65.7891 14.0156C66.5443 13.2135 67.5521 12.8125 68.8125 12.8125C69.5156 12.8125 70.1354 12.9427 70.6719 13.2031V14.5156C70.0781 14.099 69.4427 13.8906 68.7656 13.8906C67.9479 13.8906 67.276 14.1849 66.75 14.7734C66.2292 15.3568 65.9688 16.125 65.9688 17.0781C65.9688 18.0156 66.2135 18.7552 66.7031 19.2969C67.1979 19.8385 67.8594 20.1094 68.6875 20.1094C69.3854 20.1094 70.0417 19.8776 70.6562 19.4141V20.6328ZM77.1047 20.9219C76.8026 21.0885 76.4042 21.1719 75.9094 21.1719C74.5083 21.1719 73.8078 20.3906 73.8078 18.8281V14.0938H72.4328V13H73.8078V11.0469L75.0891 10.6328V13H77.1047V14.0938H75.0891V18.6016C75.0891 19.138 75.1802 19.5208 75.3625 19.75C75.5448 19.9792 75.8469 20.0938 76.2687 20.0938C76.5917 20.0938 76.8703 20.0052 77.1047 19.8281V20.9219Z" fill="black"/>
<path d="M27.0938 20.5312L27.3974 21.106L27.7437 20.923V20.5312H27.0938ZM27.0938 10.0703H27.7437V9.64629L27.3557 9.47542L27.0938 10.0703ZM27.0938 11.4688L26.7768 12.0363L27.7437 12.5762V11.4688H27.0938ZM21.3047 12.0859L20.8295 11.6424L20.8281 11.644L21.3047 12.0859ZM21.2266 18.7969L20.7474 19.2361L20.7504 19.2393L21.2266 18.7969ZM27.0938 19.2578H27.7437V18.1023L26.7562 18.7023L27.0938 19.2578ZM27.0938 20.5312L26.7901 19.9565C26.0806 20.3314 25.161 20.5375 24 20.5375V21.1875V21.8375C25.3078 21.8375 26.4507 21.6061 27.3974 21.106L27.0938 20.5312ZM24 21.1875V20.5375C22.5595 20.5375 21.4651 20.0808 20.6469 19.2048L20.1719 19.6484L19.6968 20.0921C20.7953 21.2681 22.253 21.8375 24 21.8375V21.1875ZM20.1719 19.6484L20.6469 19.2048C19.8215 18.3211 19.3844 17.1441 19.3844 15.6094H18.7344H18.0844C18.0844 17.408 18.6056 18.9237 19.6968 20.0921L20.1719 19.6484ZM18.7344 15.6094H19.3844C19.3844 13.958 19.8762 12.6829 20.8166 11.7197L20.3516 11.2656L19.8865 10.8115C18.6707 12.0567 18.0844 13.6774 18.0844 15.6094H18.7344ZM20.3516 11.2656L20.8166 11.7197C21.7628 10.7507 22.9577 10.2594 24.4531 10.2594V9.60938V8.95938C22.636 8.95938 21.0965 9.57225 19.8865 10.8115L20.3516 11.2656ZM24.4531 9.60938V10.2594C25.4586 10.2594 26.2422 10.4056 26.8318 10.6652L27.0938 10.0703L27.3557 9.47542C26.5495 9.12047 25.5727 8.95938 24.4531 8.95938V9.60938ZM27.0938 10.0703H26.4438V11.4688H27.0938H27.7437V10.0703H27.0938ZM27.0938 11.4688L27.4107 10.9012C26.5064 10.3963 25.5109 10.1469 24.4375 10.1469V10.7969V11.4469C25.3016 11.4469 26.0769 11.6454 26.7768 12.0363L27.0938 11.4688ZM24.4375 10.7969V10.1469C22.9898 10.1469 21.7669 10.6381 20.8295 11.6424L21.3047 12.0859L21.7799 12.5294C22.4467 11.815 23.3123 11.4469 24.4375 11.4469V10.7969ZM21.3047 12.0859L20.8281 11.644C19.8958 12.6494 19.4594 13.9689 19.4594 15.5312H20.1094H20.7594C20.7594 14.2186 21.1198 13.2412 21.7813 12.5279L21.3047 12.0859ZM20.1094 15.5312H19.4594C19.4594 17.018 19.8681 18.2769 20.7474 19.2361L21.2266 18.7969L21.7057 18.3577C21.0954 17.6919 20.7594 16.7737 20.7594 15.5312H20.1094ZM21.2266 18.7969L20.7504 19.2393C21.6365 20.1932 22.798 20.6578 24.1719 20.6578V20.0078V19.3578C23.1187 19.3578 22.3166 19.0152 21.7028 18.3545L21.2266 18.7969ZM24.1719 20.0078V20.6578C25.3956 20.6578 26.4906 20.3849 27.4313 19.8133L27.0938 19.2578L26.7562 18.7023C26.0511 19.1307 25.1982 19.3578 24.1719 19.3578V20.0078ZM27.0938 19.2578H26.4438V20.5312H27.0938H27.7437V19.2578H27.0938ZM30.5109 20.0703L30.0367 20.5149L30.0399 20.5183L30.5109 20.0703ZM36.3234 13.9141L35.8422 14.351L35.8439 14.3528L36.3234 13.9141ZM36.2453 20.0391L35.7715 19.5941L35.7714 19.5942L36.2453 20.0391ZM31.4875 14.7344L31.9804 15.1582L31.9823 15.1559L31.4875 14.7344ZM35.3469 19.3047L34.8479 18.8881L34.8455 18.891L35.3469 19.3047ZM35.3469 14.7031L34.8436 15.1145L34.846 15.1173L35.3469 14.7031ZM33.3469 21.1875V20.5375C32.3134 20.5375 31.5488 20.2184 30.9819 19.6224L30.5109 20.0703L30.0399 20.5183C30.8898 21.4118 32.0158 21.8375 33.3469 21.8375V21.1875ZM30.5109 20.0703L30.9851 19.6258C30.4169 19.0196 30.1063 18.1981 30.1063 17.0938H29.4563H28.8063C28.8063 18.4581 29.1987 19.621 30.0367 20.5149L30.5109 20.0703ZM29.4563 17.0938H30.1063C30.1063 15.8705 30.4375 15.0014 31.0238 14.3985L30.5578 13.9453L30.0918 13.4922C29.2094 14.3997 28.8063 15.6295 28.8063 17.0938H29.4563ZM30.5578 13.9453L31.0238 14.3985C31.6132 13.7924 32.4246 13.4625 33.5344 13.4625V12.8125V12.1625C32.1442 12.1625 30.9712 12.5878 30.0918 13.4922L30.5578 13.9453ZM33.5344 12.8125V13.4625C34.5841 13.4625 35.3234 13.7795 35.8422 14.351L36.3234 13.9141L36.8047 13.4772C35.9901 12.5798 34.87 12.1625 33.5344 12.1625V12.8125ZM36.3234 13.9141L35.8439 14.3528C36.3758 14.9342 36.6813 15.7777 36.6813 16.9688H37.3313H37.9813C37.9813 15.5556 37.6148 14.3627 36.803 13.4753L36.3234 13.9141ZM37.3313 16.9688H36.6813C36.6813 18.1156 36.3597 18.9678 35.7715 19.5941L36.2453 20.0391L36.7191 20.484C37.5788 19.5687 37.9813 18.374 37.9813 16.9688H37.3313ZM36.2453 20.0391L35.7714 19.5942C35.195 20.2082 34.4115 20.5375 33.3469 20.5375V21.1875V21.8375C34.7094 21.8375 35.8581 21.4012 36.7192 20.4839L36.2453 20.0391ZM33.4406 13.8906V13.2406C32.4516 13.2406 31.6103 13.5878 30.9927 14.3129L31.4875 14.7344L31.9823 15.1559C32.323 14.7559 32.7838 14.5406 33.4406 14.5406V13.8906ZM31.4875 14.7344L30.9946 14.3106C30.3841 15.0207 30.1188 15.9602 30.1188 17.0469H30.7688H31.4188C31.4188 16.1648 31.6326 15.5626 31.9804 15.1581L31.4875 14.7344ZM30.7688 17.0469H30.1188C30.1188 18.1052 30.3909 19.0225 31.0087 19.72L31.4953 19.2891L31.9819 18.8581C31.631 18.4619 31.4188 17.8844 31.4188 17.0469H30.7688ZM31.4953 19.2891L31.0087 19.72C31.6311 20.4228 32.4654 20.7594 33.4406 20.7594V20.1094V19.4594C32.7909 19.4594 32.3282 19.2491 31.9819 18.8581L31.4953 19.2891ZM33.4406 20.1094V20.7594C34.4218 20.7594 35.2581 20.4335 35.8482 19.7184L35.3469 19.3047L34.8455 18.891C34.5502 19.2488 34.1157 19.4594 33.4406 19.4594V20.1094ZM35.3469 19.3047L35.8458 19.7213C36.425 19.0276 36.6688 18.0951 36.6688 17.0156H36.0188H35.3688C35.3688 17.9153 35.1646 18.5088 34.8479 18.8881L35.3469 19.3047ZM36.0188 17.0156H36.6688C36.6688 15.9272 36.4257 14.9877 35.8478 14.2889L35.3469 14.7031L34.846 15.1173C35.1639 15.5019 35.3688 16.1041 35.3688 17.0156H36.0188ZM35.3469 14.7031L35.8502 14.2918C35.2608 13.5707 34.424 13.2406 33.4406 13.2406V13.8906V14.5406C34.1135 14.5406 34.5475 14.7522 34.8436 15.1145L35.3469 14.7031ZM46.8188 21V21.65H47.4688V21H46.8188ZM45.5375 21H44.8875V21.65H45.5375V21ZM42.0844 14.6172L41.5942 14.1903L41.5939 14.1907L42.0844 14.6172ZM41.4594 21V21.65H42.1094V21H41.4594ZM40.1781 21H39.5281V21.65H40.1781V21ZM40.1781 13V12.35H39.5281V13H40.1781ZM41.4594 13H42.1094V12.35H41.4594V13ZM41.4594 14.3281H40.8094V14.9781H41.4594V14.3281ZM41.4906 14.3281V14.9781H41.8593L42.0485 14.6617L41.4906 14.3281ZM46.1234 13.6641L45.6199 14.0752L45.6218 14.0774L46.1234 13.6641ZM46.8188 21V20.35H45.5375V21V21.65H46.8188V21ZM45.5375 21H46.1875V16.4375H45.5375H44.8875V21H45.5375ZM45.5375 16.4375H46.1875C46.1875 15.5287 46.0251 14.7296 45.5976 14.1441C45.1424 13.5205 44.4632 13.2406 43.6781 13.2406V13.8906V14.5406C44.1326 14.5406 44.3831 14.6852 44.5477 14.9106C44.74 15.1741 44.8875 15.6484 44.8875 16.4375H45.5375ZM43.6781 13.8906V13.2406C42.849 13.2406 42.1392 13.5646 41.5942 14.1903L42.0844 14.6172L42.5745 15.0441C42.8733 14.701 43.226 14.5406 43.6781 14.5406V13.8906ZM42.0844 14.6172L41.5939 14.1907C41.0585 14.8064 40.8094 15.5724 40.8094 16.4375H41.4594H42.1094C42.1094 15.8339 42.2769 15.3863 42.5749 15.0437L42.0844 14.6172ZM41.4594 16.4375H40.8094V21H41.4594H42.1094V16.4375H41.4594ZM41.4594 21V20.35H40.1781V21V21.65H41.4594V21ZM40.1781 21H40.8281V13H40.1781H39.5281V21H40.1781ZM40.1781 13V13.65H41.4594V13V12.35H40.1781V13ZM41.4594 13H40.8094V14.3281H41.4594H42.1094V13H41.4594ZM41.4594 14.3281V14.9781H41.4906V14.3281V13.6781H41.4594V14.3281ZM41.4906 14.3281L42.0485 14.6617C42.5393 13.8409 43.2061 13.4625 44.1156 13.4625V12.8125V12.1625C42.7335 12.1625 41.6503 12.7945 40.9327 13.9945L41.4906 14.3281ZM44.1156 12.8125V13.4625C44.8374 13.4625 45.3042 13.6884 45.62 14.0752L46.1234 13.6641L46.6269 13.253C46.0156 12.5043 45.1438 12.1625 44.1156 12.1625V12.8125ZM46.1234 13.6641L45.6218 14.0774C45.9536 14.4801 46.1688 15.1245 46.1688 16.1094H46.8188H47.4688C47.4688 14.9589 47.2203 13.9731 46.6251 13.2507L46.1234 13.6641ZM46.8188 16.1094H46.1688V21H46.8188H47.4688V16.1094H46.8188ZM53.7516 20.9219L54.0656 21.491L54.4016 21.3056V20.9219H53.7516ZM50.4547 14.0938H51.1047V13.4438H50.4547V14.0938ZM49.0797 14.0938H48.4297V14.7437H49.0797V14.0938ZM49.0797 13V12.35H48.4297V13H49.0797ZM50.4547 13V13.65H51.1047V13H50.4547ZM50.4547 11.0469L50.2548 10.4284L49.8047 10.5738V11.0469H50.4547ZM51.7359 10.6328H52.3859V9.73965L51.5361 10.0143L51.7359 10.6328ZM51.7359 13H51.0859V13.65H51.7359V13ZM53.7516 13H54.4016V12.35H53.7516V13ZM53.7516 14.0938V14.7437H54.4016V14.0938H53.7516ZM51.7359 14.0938V13.4438H51.0859V14.0938H51.7359ZM53.7516 19.8281H54.4016V18.5223L53.3597 19.3095L53.7516 19.8281ZM53.7516 20.9219L53.4376 20.3527C53.2644 20.4483 52.986 20.5219 52.5562 20.5219V21.1719V21.8219C53.1161 21.8219 53.6346 21.7288 54.0656 21.491L53.7516 20.9219ZM52.5562 21.1719V20.5219C51.9754 20.5219 51.6534 20.3632 51.464 20.152C51.2626 19.9273 51.1047 19.5256 51.1047 18.8281H50.4547H49.8047C49.8047 19.6931 49.9971 20.4633 50.4961 21.0199C51.0073 21.59 51.7361 21.8219 52.5562 21.8219V21.1719ZM50.4547 18.8281H51.1047V14.0938H50.4547H49.8047V18.8281H50.4547ZM50.4547 14.0938V13.4438H49.0797V14.0938V14.7437H50.4547V14.0938ZM49.0797 14.0938H49.7297V13H49.0797H48.4297V14.0938H49.0797ZM49.0797 13V13.65H50.4547V13V12.35H49.0797V13ZM50.4547 13H51.1047V11.0469H50.4547H49.8047V13H50.4547ZM50.4547 11.0469L50.6546 11.6654L51.9358 11.2513L51.7359 10.6328L51.5361 10.0143L50.2548 10.4284L50.4547 11.0469ZM51.7359 10.6328H51.0859V13H51.7359H52.3859V10.6328H51.7359ZM51.7359 13V13.65H53.7516V13V12.35H51.7359V13ZM53.7516 13H53.1016V14.0938H53.7516H54.4016V13H53.7516ZM53.7516 14.0938V13.4438H51.7359V14.0938V14.7437H53.7516V14.0938ZM51.7359 14.0938H51.0859V18.6016H51.7359H52.3859V14.0938H51.7359ZM51.7359 18.6016H51.0859C51.0859 19.1776 51.1771 19.7479 51.5007 20.1546L52.0094 19.75L52.5181 19.3454C52.4771 19.2938 52.3859 19.0985 52.3859 18.6016H51.7359ZM52.0094 19.75L51.5007 20.1546C51.8536 20.5983 52.3867 20.7437 52.9156 20.7437V20.0938V19.4438C52.6008 19.4438 52.5298 19.3601 52.5181 19.3454L52.0094 19.75ZM52.9156 20.0938V20.7437C53.3651 20.7437 53.7849 20.6176 54.1434 20.3467L53.7516 19.8281L53.3597 19.3095C53.2495 19.3928 53.1119 19.4438 52.9156 19.4438V20.0938ZM53.7516 19.8281H53.1016V20.9219H53.7516H54.4016V19.8281H53.7516ZM61.9891 21V21.65H62.6391V21H61.9891ZM60.7078 21H60.0578V21.65H60.7078V21ZM60.7078 19.75H61.3578V19.1H60.7078V19.75ZM60.6766 19.75V19.1H60.3026L60.1147 19.4232L60.6766 19.75ZM56.3406 20.5547L55.895 21.0279L55.8977 21.0304L56.3406 20.5547ZM58.3094 16.2656L58.3989 16.9094L58.3995 16.9093L58.3094 16.2656ZM60.7078 15.9297L60.798 16.5734L61.3578 16.495V15.9297H60.7078ZM56.45 14.875H55.8V16.2759L56.8697 15.3713L56.45 14.875ZM56.45 13.5625L56.1013 13.014L55.8 13.2055V13.5625H56.45ZM60.7078 16.9531H61.3578V16.2075L60.6192 16.3092L60.7078 16.9531ZM58.7781 17.2188L58.6895 16.5748L58.6878 16.5751L58.7781 17.2188ZM57.4344 17.6641L57.8034 18.1992L57.8096 18.1948L57.4344 17.6641ZM57.3953 19.7422L56.9589 20.2241L56.9686 20.2325L57.3953 19.7422ZM60.0828 19.4453L59.6069 19.0026L59.6067 19.0028L60.0828 19.4453ZM61.9891 21V20.35H60.7078V21V21.65H61.9891V21ZM60.7078 21H61.3578V19.75H60.7078H60.0578V21H60.7078ZM60.7078 19.75V19.1H60.6766V19.75V20.4H60.7078V19.75ZM60.6766 19.75L60.1147 19.4232C59.6704 20.1872 59.0609 20.5375 58.2156 20.5375V21.1875V21.8375C59.537 21.8375 60.5681 21.2294 61.2385 20.0768L60.6766 19.75ZM58.2156 21.1875V20.5375C57.5343 20.5375 57.0849 20.3595 56.7835 20.079L56.3406 20.5547L55.8977 21.0304C56.5026 21.5936 57.3032 21.8375 58.2156 21.8375V21.1875ZM56.3406 20.5547L56.7863 20.0815C56.4868 19.7995 56.3188 19.4202 56.3188 18.875H55.6688H55.0188C55.0188 19.7256 55.2986 20.4661 55.895 21.0279L56.3406 20.5547ZM55.6688 18.875H56.3188C56.3188 18.2627 56.4943 17.852 56.7858 17.5639C57.0911 17.2622 57.599 17.0207 58.3989 16.9094L58.3094 16.2656L58.2199 15.6218C57.2593 15.7554 56.4469 16.0711 55.872 16.6392C55.2833 17.221 55.0188 17.9925 55.0188 18.875H55.6688ZM58.3094 16.2656L58.3995 16.9093L60.798 16.5734L60.7078 15.9297L60.6177 15.286L58.2192 15.6219L58.3094 16.2656ZM60.7078 15.9297H61.3578C61.3578 15.1793 61.2089 14.4961 60.8012 13.9917C60.3721 13.461 59.75 13.2406 59.0594 13.2406V13.8906V14.5406C59.4677 14.5406 59.6698 14.6601 59.7902 14.809C59.932 14.9844 60.0578 15.3207 60.0578 15.9297H60.7078ZM59.0594 13.8906V13.2406C57.9333 13.2406 56.9167 13.6291 56.0303 14.3787L56.45 14.875L56.8697 15.3713C57.5354 14.8084 58.2584 14.5406 59.0594 14.5406V13.8906ZM56.45 14.875H57.1V13.5625H56.45H55.8V14.875H56.45ZM56.45 13.5625L56.7987 14.111C57.4706 13.6839 58.2533 13.4625 59.1688 13.4625V12.8125V12.1625C58.0321 12.1625 57.0024 12.4411 56.1013 13.014L56.45 13.5625ZM59.1688 12.8125V13.4625C59.999 13.4625 60.5047 13.6803 60.8116 14.005C61.1249 14.3366 61.3391 14.8934 61.3391 15.7969H61.9891H62.6391C62.6391 14.7108 62.3831 13.7753 61.7564 13.1121C61.1232 12.4421 60.2187 12.1625 59.1688 12.1625V12.8125ZM61.9891 15.7969H61.3391V21H61.9891H62.6391V15.7969H61.9891ZM60.7078 16.9531L60.6192 16.3092L58.6895 16.5748L58.7781 17.2188L58.8668 17.8627L60.7965 17.5971L60.7078 16.9531ZM58.7781 17.2188L58.6878 16.5751C58.0481 16.6648 57.4827 16.8339 57.0592 17.1333L57.4344 17.6641L57.8096 18.1948C57.9902 18.0671 58.3207 17.9393 58.8685 17.8624L58.7781 17.2188ZM57.4344 17.6641L57.0653 17.129C56.5157 17.508 56.3313 18.136 56.3313 18.7812H56.9813H57.6313C57.6313 18.3535 57.7489 18.2368 57.8034 18.1992L57.4344 17.6641ZM56.9813 18.7812H56.3313C56.3313 19.3453 56.5395 19.8441 56.959 20.224L57.3953 19.7422L57.8316 19.2604C57.699 19.1403 57.6313 18.9985 57.6313 18.7812H56.9813ZM57.3953 19.7422L56.9686 20.2325C57.3949 20.6036 57.9317 20.7594 58.5125 20.7594V20.1094V19.4594C58.1663 19.4594 57.9582 19.3704 57.8221 19.2519L57.3953 19.7422ZM58.5125 20.1094V20.7594C59.3181 20.7594 60.0176 20.4703 60.5589 19.8878L60.0828 19.4453L59.6067 19.0028C59.3251 19.3057 58.9777 19.4594 58.5125 19.4594V20.1094ZM60.0828 19.4453L60.5587 19.888C61.1005 19.3056 61.3578 18.5761 61.3578 17.75H60.7078H60.0578C60.0578 18.2885 59.8985 18.6892 59.6069 19.0026L60.0828 19.4453ZM60.7078 17.75H61.3578V16.9531H60.7078H60.0578V17.75H60.7078ZM70.6562 20.6328L70.9914 21.1898L71.3062 21.0003V20.6328H70.6562ZM65.7031 20.0781L65.2288 20.5226L65.232 20.526L65.7031 20.0781ZM65.7891 14.0156L66.2609 14.4627L66.2623 14.4612L65.7891 14.0156ZM70.6719 13.2031H71.3219V12.7961L70.9557 12.6184L70.6719 13.2031ZM70.6719 14.5156L70.2985 15.0477L71.3219 15.7658V14.5156H70.6719ZM66.75 14.7734L66.2654 14.3403L66.2651 14.3405L66.75 14.7734ZM66.7031 19.2969L66.2209 19.7327L66.2232 19.7353L66.7031 19.2969ZM70.6562 19.4141H71.3062V18.1097L70.2648 18.8951L70.6562 19.4141ZM70.6562 20.6328L70.3211 20.0759C69.8244 20.3748 69.2155 20.5375 68.4688 20.5375V21.1875V21.8375C69.4095 21.8375 70.259 21.6304 70.9914 21.1898L70.6562 20.6328ZM68.4688 21.1875V20.5375C67.4831 20.5375 66.7396 20.2249 66.1742 19.6303L65.7031 20.0781L65.232 20.526C66.0729 21.4105 67.1732 21.8375 68.4688 21.8375V21.1875ZM65.7031 20.0781L66.1774 19.6337C65.6102 19.0283 65.3062 18.2327 65.3062 17.1875H64.6562H64.0063C64.0063 18.5069 64.4002 19.6383 65.2288 20.5226L65.7031 20.0781ZM64.6562 17.1875H65.3062C65.3062 16.0008 65.6423 15.1154 66.2609 14.4627L65.7891 14.0156L65.3173 13.5685C64.4254 14.5096 64.0063 15.7388 64.0063 17.1875H64.6562ZM65.7891 14.0156L66.2623 14.4612C66.8765 13.8089 67.7029 13.4625 68.8125 13.4625V12.8125V12.1625C67.4012 12.1625 66.212 12.6182 65.3158 13.57L65.7891 14.0156ZM68.8125 12.8125V13.4625C69.4348 13.4625 69.9545 13.5774 70.388 13.7879L70.6719 13.2031L70.9557 12.6184C70.3163 12.308 69.5965 12.1625 68.8125 12.1625V12.8125ZM70.6719 13.2031H70.0219V14.5156H70.6719H71.3219V13.2031H70.6719ZM70.6719 14.5156L71.0453 13.9836C70.3504 13.4959 69.586 13.2406 68.7656 13.2406V13.8906V14.5406C69.2994 14.5406 69.8059 14.702 70.2985 15.0477L70.6719 14.5156ZM68.7656 13.8906V13.2406C67.7704 13.2406 66.9197 13.6082 66.2654 14.3403L66.75 14.7734L67.2346 15.2066C67.6324 14.7616 68.1254 14.5406 68.7656 14.5406V13.8906ZM66.75 14.7734L66.2651 14.3405C65.6159 15.0677 65.3188 16.0019 65.3188 17.0781H65.9688H66.6187C66.6187 16.2481 66.8425 15.6458 67.2349 15.2063L66.75 14.7734ZM65.9688 17.0781H65.3188C65.3188 18.1295 65.5954 19.0407 66.2209 19.7327L66.7031 19.2969L67.1853 18.861C66.8317 18.4697 66.6187 17.9017 66.6187 17.0781H65.9688ZM66.7031 19.2969L66.2232 19.7353C66.8577 20.4298 67.7028 20.7594 68.6875 20.7594V20.1094V19.4594C68.0159 19.4594 67.5382 19.2473 67.183 18.8585L66.7031 19.2969ZM68.6875 20.1094V20.7594C69.5413 20.7594 70.3326 20.4724 71.0477 19.933L70.6562 19.4141L70.2648 18.8951C69.7508 19.2829 69.2296 19.4594 68.6875 19.4594V20.1094ZM70.6562 19.4141H70.0063V20.6328H70.6562H71.3062V19.4141H70.6562ZM77.1047 20.9219L77.4187 21.491L77.7547 21.3056V20.9219H77.1047ZM73.8078 14.0938H74.4578V13.4438H73.8078V14.0938ZM72.4328 14.0938H71.7828V14.7437H72.4328V14.0938ZM72.4328 13V12.35H71.7828V13H72.4328ZM73.8078 13V13.65H74.4578V13H73.8078ZM73.8078 11.0469L73.6079 10.4284L73.1578 10.5738V11.0469H73.8078ZM75.0891 10.6328H75.7391V9.73965L74.8892 10.0143L75.0891 10.6328ZM75.0891 13H74.4391V13.65H75.0891V13ZM77.1047 13H77.7547V12.35H77.1047V13ZM77.1047 14.0938V14.7437H77.7547V14.0938H77.1047ZM75.0891 14.0938V13.4438H74.4391V14.0938H75.0891ZM77.1047 19.8281H77.7547V18.5223L76.7128 19.3095L77.1047 19.8281ZM77.1047 20.9219L76.7907 20.3527C76.6175 20.4483 76.3391 20.5219 75.9094 20.5219V21.1719V21.8219C76.4693 21.8219 76.9877 21.7288 77.4187 21.491L77.1047 20.9219ZM75.9094 21.1719V20.5219C75.3285 20.5219 75.0065 20.3632 74.8171 20.152C74.6157 19.9273 74.4578 19.5256 74.4578 18.8281H73.8078H73.1578C73.1578 19.6931 73.3502 20.4633 73.8493 21.0199C74.3604 21.59 75.0892 21.8219 75.9094 21.8219V21.1719ZM73.8078 18.8281H74.4578V14.0938H73.8078H73.1578V18.8281H73.8078ZM73.8078 14.0938V13.4438H72.4328V14.0938V14.7437H73.8078V14.0938ZM72.4328 14.0938H73.0828V13H72.4328H71.7828V14.0938H72.4328ZM72.4328 13V13.65H73.8078V13V12.35H72.4328V13ZM73.8078 13H74.4578V11.0469H73.8078H73.1578V13H73.8078ZM73.8078 11.0469L74.0077 11.6654L75.2889 11.2513L75.0891 10.6328L74.8892 10.0143L73.6079 10.4284L73.8078 11.0469ZM75.0891 10.6328H74.4391V13H75.0891H75.7391V10.6328H75.0891ZM75.0891 13V13.65H77.1047V13V12.35H75.0891V13ZM77.1047 13H76.4547V14.0938H77.1047H77.7547V13H77.1047ZM77.1047 14.0938V13.4438H75.0891V14.0938V14.7437H77.1047V14.0938ZM75.0891 14.0938H74.4391V18.6016H75.0891H75.7391V14.0938H75.0891ZM75.0891 18.6016H74.4391C74.4391 19.1776 74.5302 19.7479 74.8538 20.1546L75.3625 19.75L75.8712 19.3454C75.8302 19.2938 75.7391 19.0985 75.7391 18.6016H75.0891ZM75.3625 19.75L74.8538 20.1546C75.2067 20.5983 75.7398 20.7437 76.2687 20.7437V20.0938V19.4438C75.954 19.4438 75.8829 19.3601 75.8712 19.3454L75.3625 19.75ZM76.2687 20.0938V20.7437C76.7183 20.7437 77.138 20.6176 77.4965 20.3467L77.1047 19.8281L76.7128 19.3095C76.6026 19.3928 76.4651 19.4438 76.2687 19.4438V20.0938ZM77.1047 19.8281H76.4547V20.9219H77.1047H77.7547V19.8281H77.1047Z" fill="black" mask="url(#path-1-outside-1_5_23)"/>
<rect x="1.5" y="1.5" width="94" height="26" rx="3.5" stroke="black" stroke-width="3"/>
</svg>
