<svg width="56" height="56" viewBox="0 0 56 56" fill="none" xmlns="http://www.w3.org/2000/svg">
<rect x="1.5" y="1.5" width="53" height="53" rx="6.5" stroke="black" stroke-width="3"/>
<mask id="path-2-outside-1_1_11" maskUnits="userSpaceOnUse" x="16" y="19" width="27" height="19" fill="black">
<rect fill="white" x="16" y="19" width="27" height="19"/>
<path d="M30.75 37H28.3359L19.6875 23.6055C19.4688 23.2695 19.2891 22.918 19.1484 22.5508H19.0781C19.1406 22.9102 19.1719 23.6797 19.1719 24.8594V37H17.2031V20.1953H19.7578L28.1719 33.3789C28.5234 33.9258 28.75 34.3008 28.8516 34.5039H28.8984C28.8203 34.0195 28.7812 33.1953 28.7812 32.0312V20.1953H30.75V37ZM41.1562 26.9453C40.8203 26.6875 40.3359 26.5586 39.7031 26.5586C38.8828 26.5586 38.1953 26.9453 37.6406 27.7188C37.0938 28.4922 36.8203 29.5469 36.8203 30.8828V37H34.8984V25H36.8203V27.4727H36.8672C37.1406 26.6289 37.5586 25.9727 38.1211 25.5039C38.6836 25.0273 39.3125 24.7891 40.0078 24.7891C40.5078 24.7891 40.8906 24.8438 41.1562 24.9531V26.9453Z"/>
</mask>
<path d="M30.75 37H28.3359L19.6875 23.6055C19.4688 23.2695 19.2891 22.918 19.1484 22.5508H19.0781C19.1406 22.9102 19.1719 23.6797 19.1719 24.8594V37H17.2031V20.1953H19.7578L28.1719 33.3789C28.5234 33.9258 28.75 34.3008 28.8516 34.5039H28.8984C28.8203 34.0195 28.7812 33.1953 28.7812 32.0312V20.1953H30.75V37ZM41.1562 26.9453C40.8203 26.6875 40.3359 26.5586 39.7031 26.5586C38.8828 26.5586 38.1953 26.9453 37.6406 27.7188C37.0938 28.4922 36.8203 29.5469 36.8203 30.8828V37H34.8984V25H36.8203V27.4727H36.8672C37.1406 26.6289 37.5586 25.9727 38.1211 25.5039C38.6836 25.0273 39.3125 24.7891 40.0078 24.7891C40.5078 24.7891 40.8906 24.8438 41.1562 24.9531V26.9453Z" fill="black"/>
<path d="M30.75 37V38H31.75V37H30.75ZM28.3359 37L27.4958 37.5424L27.7913 38H28.3359V37ZM19.6875 23.6055L20.5276 23.063L20.5255 23.0598L19.6875 23.6055ZM19.1484 22.5508L20.0823 22.1931L19.8363 21.5508H19.1484V22.5508ZM19.0781 22.5508V21.5508H17.8892L18.0929 22.7221L19.0781 22.5508ZM19.1719 37V38H20.1719V37H19.1719ZM17.2031 37H16.2031V38H17.2031V37ZM17.2031 20.1953V19.1953H16.2031V20.1953H17.2031ZM19.7578 20.1953L20.6008 19.6573L20.3059 19.1953H19.7578V20.1953ZM28.1719 33.3789L27.3289 33.9169L27.3307 33.9197L28.1719 33.3789ZM28.8516 34.5039L27.9571 34.9511L28.2335 35.5039H28.8516V34.5039ZM28.8984 34.5039V35.5039H30.0727L29.8857 34.3447L28.8984 34.5039ZM28.7812 20.1953V19.1953H27.7812V20.1953H28.7812ZM30.75 20.1953H31.75V19.1953H30.75V20.1953ZM30.75 37V36H28.3359V37V38H30.75V37ZM28.3359 37L29.176 36.4576L20.5276 23.063L19.6875 23.6055L18.8474 24.1479L27.4958 37.5424L28.3359 37ZM19.6875 23.6055L20.5255 23.0598C20.3445 22.7818 20.1972 22.4932 20.0823 22.1931L19.1484 22.5508L18.2146 22.9084C18.3809 23.3428 18.593 23.7572 18.8495 24.1511L19.6875 23.6055ZM19.1484 22.5508V21.5508H19.0781V22.5508V23.5508H19.1484V22.5508ZM19.0781 22.5508L18.0929 22.7221C18.1379 22.9807 18.1719 23.6602 18.1719 24.8594H19.1719H20.1719C20.1719 23.6992 20.1434 22.8396 20.0633 22.3794L19.0781 22.5508ZM19.1719 24.8594H18.1719V37H19.1719H20.1719V24.8594H19.1719ZM19.1719 37V36H17.2031V37V38H19.1719V37ZM17.2031 37H18.2031V20.1953H17.2031H16.2031V37H17.2031ZM17.2031 20.1953V21.1953H19.7578V20.1953V19.1953H17.2031V20.1953ZM19.7578 20.1953L18.9149 20.7333L27.3289 33.9169L28.1719 33.3789L29.0148 32.8409L20.6008 19.6573L19.7578 20.1953ZM28.1719 33.3789L27.3307 33.9197C27.6861 34.4726 27.8834 34.8037 27.9571 34.9511L28.8516 34.5039L29.746 34.0567C29.6166 33.7979 29.3607 33.379 29.0131 32.8381L28.1719 33.3789ZM28.8516 34.5039V35.5039H28.8984V34.5039V33.5039H28.8516V34.5039ZM28.8984 34.5039L29.8857 34.3447C29.8216 33.9472 29.7812 33.1944 29.7812 32.0312H28.7812H27.7812C27.7812 33.1962 27.819 34.0918 27.9112 34.6631L28.8984 34.5039ZM28.7812 32.0312H29.7812V20.1953H28.7812H27.7812V32.0312H28.7812ZM28.7812 20.1953V21.1953H30.75V20.1953V19.1953H28.7812V20.1953ZM30.75 20.1953H29.75V37H30.75H31.75V20.1953H30.75ZM41.1562 26.9453L40.5474 27.7386L42.1562 28.9733V26.9453H41.1562ZM37.6406 27.7188L36.828 27.1359L36.8241 27.1414L37.6406 27.7188ZM36.8203 37V38H37.8203V37H36.8203ZM34.8984 37H33.8984V38H34.8984V37ZM34.8984 25V24H33.8984V25H34.8984ZM36.8203 25H37.8203V24H36.8203V25ZM36.8203 27.4727H35.8203V28.4727H36.8203V27.4727ZM36.8672 27.4727V28.4727H37.5943L37.8185 27.7809L36.8672 27.4727ZM38.1211 25.5039L38.7613 26.2722L38.7675 26.2669L38.1211 25.5039ZM41.1562 24.9531H42.1562V24.2834L41.537 24.0284L41.1562 24.9531ZM41.1562 26.9453L41.7651 26.152C41.1869 25.7083 40.4522 25.5586 39.7031 25.5586V26.5586V27.5586C40.2197 27.5586 40.4537 27.6667 40.5474 27.7386L41.1562 26.9453ZM39.7031 26.5586V25.5586C38.5056 25.5586 37.536 26.1487 36.828 27.136L37.6406 27.7188L38.4532 28.3015C38.8546 27.7419 39.26 27.5586 39.7031 27.5586V26.5586ZM37.6406 27.7188L36.8241 27.1414C36.1179 28.1402 35.8203 29.4221 35.8203 30.8828H36.8203H37.8203C37.8203 29.6716 38.0696 28.8442 38.4571 28.2961L37.6406 27.7188ZM36.8203 30.8828H35.8203V37H36.8203H37.8203V30.8828H36.8203ZM36.8203 37V36H34.8984V37V38H36.8203V37ZM34.8984 37H35.8984V25H34.8984H33.8984V37H34.8984ZM34.8984 25V26H36.8203V25V24H34.8984V25ZM36.8203 25H35.8203V27.4727H36.8203H37.8203V25H36.8203ZM36.8203 27.4727V28.4727H36.8672V27.4727V26.4727H36.8203V27.4727ZM36.8672 27.4727L37.8185 27.7809C38.0461 27.0786 38.3718 26.5967 38.7613 26.2721L38.1211 25.5039L37.4809 24.7357C36.7453 25.3487 36.2352 26.1792 35.9159 27.1644L36.8672 27.4727ZM38.1211 25.5039L38.7675 26.2669C39.1612 25.9334 39.5642 25.7891 40.0078 25.7891V24.7891V23.7891C39.0608 23.7891 38.206 24.1213 37.4747 24.7409L38.1211 25.5039ZM40.0078 24.7891V25.7891C40.4595 25.7891 40.6887 25.8421 40.7755 25.8778L41.1562 24.9531L41.537 24.0284C41.0926 23.8454 40.5561 23.7891 40.0078 23.7891V24.7891ZM41.1562 24.9531H40.1562V26.9453H41.1562H42.1562V24.9531H41.1562Z" fill="black" mask="url(#path-2-outside-1_1_11)"/>
<mask id="path-4-outside-2_1_11" maskUnits="userSpaceOnUse" x="6" y="6" width="9" height="7" fill="black">
<rect fill="white" x="6" y="6" width="9" height="7"/>
<path d="M9.01562 7.86719C9.01562 7.69531 8.98828 7.54557 8.93359 7.41797C8.88151 7.29036 8.80859 7.1849 8.71484 7.10156C8.6237 7.01562 8.51562 6.95182 8.39062 6.91016C8.26562 6.86849 8.13021 6.84766 7.98438 6.84766C7.85938 6.84766 7.73698 6.86458 7.61719 6.89844C7.4974 6.93229 7.38021 6.97917 7.26562 7.03906C7.15365 7.09896 7.04427 7.17057 6.9375 7.25391C6.83333 7.33724 6.73568 7.42969 6.64453 7.53125V6.84375C6.82422 6.66927 7.02474 6.53646 7.24609 6.44531C7.47005 6.35156 7.74219 6.30469 8.0625 6.30469C8.29167 6.30469 8.50391 6.33854 8.69922 6.40625C8.89453 6.47135 9.0638 6.56771 9.20703 6.69531C9.35026 6.82292 9.46224 6.98047 9.54297 7.16797C9.6263 7.35547 9.66797 7.57031 9.66797 7.8125C9.66797 8.03385 9.64193 8.23438 9.58984 8.41406C9.54036 8.59375 9.46354 8.76302 9.35938 8.92188C9.25781 9.08073 9.12891 9.23307 8.97266 9.37891C8.81641 9.52474 8.63281 9.67318 8.42188 9.82422C8.15885 10.0117 7.94141 10.1719 7.76953 10.3047C7.60026 10.4375 7.46484 10.5625 7.36328 10.6797C7.26432 10.7943 7.19401 10.9102 7.15234 11.0273C7.11328 11.1419 7.09375 11.2747 7.09375 11.4258H9.88281V12H6.42578V11.7227C6.42578 11.4831 6.45182 11.2721 6.50391 11.0898C6.55599 10.9076 6.64193 10.7344 6.76172 10.5703C6.88151 10.4062 7.03776 10.2422 7.23047 10.0781C7.42578 9.91406 7.66406 9.72917 7.94531 9.52344C8.14844 9.3776 8.31771 9.23828 8.45312 9.10547C8.59115 8.97266 8.70182 8.83984 8.78516 8.70703C8.86849 8.57422 8.92708 8.4401 8.96094 8.30469C8.9974 8.16667 9.01562 8.02083 9.01562 7.86719ZM14.0977 10.2891C14.0977 10.5625 14.0508 10.8099 13.957 11.0312C13.8633 11.2526 13.7292 11.4427 13.5547 11.6016C13.3828 11.7604 13.1745 11.8828 12.9297 11.9688C12.6849 12.0547 12.4128 12.0977 12.1133 12.0977C11.5924 12.0977 11.2057 12.0195 10.9531 11.8633V11.1836C11.3333 11.4284 11.7227 11.5508 12.1211 11.5508C12.3242 11.5508 12.5065 11.5208 12.668 11.4609C12.832 11.401 12.9714 11.3177 13.0859 11.2109C13.2005 11.1042 13.2878 10.9753 13.3477 10.8242C13.4102 10.6732 13.4414 10.5078 13.4414 10.3281C13.4414 9.96354 13.319 9.67839 13.0742 9.47266C12.8294 9.26432 12.474 9.16016 12.0078 9.16016C11.9323 9.16016 11.8529 9.16146 11.7695 9.16406C11.6862 9.16667 11.6029 9.17057 11.5195 9.17578C11.4362 9.17839 11.3542 9.18229 11.2734 9.1875C11.1953 9.19271 11.1237 9.19922 11.0586 9.20703L11.25 6.39844H13.8398V6.97656H11.8047L11.6914 8.62109C11.7747 8.61589 11.8633 8.61198 11.957 8.60938C12.0508 8.60417 12.1341 8.60156 12.207 8.60156C12.5039 8.60156 12.7695 8.64062 13.0039 8.71875C13.2383 8.79688 13.4362 8.90885 13.5977 9.05469C13.7617 9.19792 13.8854 9.375 13.9688 9.58594C14.0547 9.79427 14.0977 10.0286 14.0977 10.2891Z"/>
</mask>
<path d="M9.01562 7.86719C9.01562 7.69531 8.98828 7.54557 8.93359 7.41797C8.88151 7.29036 8.80859 7.1849 8.71484 7.10156C8.6237 7.01562 8.51562 6.95182 8.39062 6.91016C8.26562 6.86849 8.13021 6.84766 7.98438 6.84766C7.85938 6.84766 7.73698 6.86458 7.61719 6.89844C7.4974 6.93229 7.38021 6.97917 7.26562 7.03906C7.15365 7.09896 7.04427 7.17057 6.9375 7.25391C6.83333 7.33724 6.73568 7.42969 6.64453 7.53125V6.84375C6.82422 6.66927 7.02474 6.53646 7.24609 6.44531C7.47005 6.35156 7.74219 6.30469 8.0625 6.30469C8.29167 6.30469 8.50391 6.33854 8.69922 6.40625C8.89453 6.47135 9.0638 6.56771 9.20703 6.69531C9.35026 6.82292 9.46224 6.98047 9.54297 7.16797C9.6263 7.35547 9.66797 7.57031 9.66797 7.8125C9.66797 8.03385 9.64193 8.23438 9.58984 8.41406C9.54036 8.59375 9.46354 8.76302 9.35938 8.92188C9.25781 9.08073 9.12891 9.23307 8.97266 9.37891C8.81641 9.52474 8.63281 9.67318 8.42188 9.82422C8.15885 10.0117 7.94141 10.1719 7.76953 10.3047C7.60026 10.4375 7.46484 10.5625 7.36328 10.6797C7.26432 10.7943 7.19401 10.9102 7.15234 11.0273C7.11328 11.1419 7.09375 11.2747 7.09375 11.4258H9.88281V12H6.42578V11.7227C6.42578 11.4831 6.45182 11.2721 6.50391 11.0898C6.55599 10.9076 6.64193 10.7344 6.76172 10.5703C6.88151 10.4062 7.03776 10.2422 7.23047 10.0781C7.42578 9.91406 7.66406 9.72917 7.94531 9.52344C8.14844 9.3776 8.31771 9.23828 8.45312 9.10547C8.59115 8.97266 8.70182 8.83984 8.78516 8.70703C8.86849 8.57422 8.92708 8.4401 8.96094 8.30469C8.9974 8.16667 9.01562 8.02083 9.01562 7.86719ZM14.0977 10.2891C14.0977 10.5625 14.0508 10.8099 13.957 11.0312C13.8633 11.2526 13.7292 11.4427 13.5547 11.6016C13.3828 11.7604 13.1745 11.8828 12.9297 11.9688C12.6849 12.0547 12.4128 12.0977 12.1133 12.0977C11.5924 12.0977 11.2057 12.0195 10.9531 11.8633V11.1836C11.3333 11.4284 11.7227 11.5508 12.1211 11.5508C12.3242 11.5508 12.5065 11.5208 12.668 11.4609C12.832 11.401 12.9714 11.3177 13.0859 11.2109C13.2005 11.1042 13.2878 10.9753 13.3477 10.8242C13.4102 10.6732 13.4414 10.5078 13.4414 10.3281C13.4414 9.96354 13.319 9.67839 13.0742 9.47266C12.8294 9.26432 12.474 9.16016 12.0078 9.16016C11.9323 9.16016 11.8529 9.16146 11.7695 9.16406C11.6862 9.16667 11.6029 9.17057 11.5195 9.17578C11.4362 9.17839 11.3542 9.18229 11.2734 9.1875C11.1953 9.19271 11.1237 9.19922 11.0586 9.20703L11.25 6.39844H13.8398V6.97656H11.8047L11.6914 8.62109C11.7747 8.61589 11.8633 8.61198 11.957 8.60938C12.0508 8.60417 12.1341 8.60156 12.207 8.60156C12.5039 8.60156 12.7695 8.64062 13.0039 8.71875C13.2383 8.79688 13.4362 8.90885 13.5977 9.05469C13.7617 9.19792 13.8854 9.375 13.9688 9.58594C14.0547 9.79427 14.0977 10.0286 14.0977 10.2891Z" fill="black"/>
<path d="M8.93359 7.41797L8.6558 7.53135L8.65785 7.53614L8.93359 7.41797ZM8.71484 7.10156L8.50895 7.31993L8.51553 7.32579L8.71484 7.10156ZM7.26562 7.03906L7.12664 6.77318L7.12413 6.77453L7.26562 7.03906ZM6.9375 7.25391L6.75291 7.01739L6.75009 7.01965L6.9375 7.25391ZM6.64453 7.53125H6.34453V8.3147L6.8678 7.73162L6.64453 7.53125ZM6.64453 6.84375L6.43554 6.62852L6.34453 6.71689V6.84375H6.64453ZM7.24609 6.44531L7.36032 6.72272L7.36194 6.72204L7.24609 6.44531ZM8.69922 6.40625L8.60095 6.68972L8.60435 6.69086L8.69922 6.40625ZM9.54297 7.16797L9.2674 7.28661L9.26883 7.28981L9.54297 7.16797ZM9.58984 8.41406L9.30168 8.33054L9.30061 8.33442L9.58984 8.41406ZM9.35938 8.92188L9.10848 8.75736L9.10662 8.76028L9.35938 8.92188ZM8.42188 9.82422L8.59602 10.0685L8.59653 10.0681L8.42188 9.82422ZM7.76953 10.3047L7.58609 10.0673L7.58435 10.0687L7.76953 10.3047ZM7.36328 10.6797L7.13657 10.4832L7.13623 10.4836L7.36328 10.6797ZM7.15234 11.0273L6.86966 10.9268L6.86839 10.9305L7.15234 11.0273ZM7.09375 11.4258H6.79375V11.7258H7.09375V11.4258ZM9.88281 11.4258H10.1828V11.1258H9.88281V11.4258ZM9.88281 12V12.3H10.1828V12H9.88281ZM6.42578 12H6.12578V12.3H6.42578V12ZM6.50391 11.0898L6.21545 11.0074L6.50391 11.0898ZM7.23047 10.0781L7.03751 9.84841L7.036 9.8497L7.23047 10.0781ZM7.94531 9.52344L7.77034 9.27973L7.7682 9.2813L7.94531 9.52344ZM8.45312 9.10547L8.2451 8.88929L8.24306 8.89129L8.45312 9.10547ZM8.96094 8.30469L8.67086 8.22806L8.66989 8.23193L8.96094 8.30469ZM9.01562 7.86719H9.31563C9.31563 7.66407 9.28335 7.4725 9.20934 7.29979L8.93359 7.41797L8.65785 7.53614C8.69321 7.61865 8.71562 7.72655 8.71562 7.86719H9.01562ZM8.93359 7.41797L9.21135 7.3046C9.14367 7.13879 9.04546 6.99406 8.91415 6.87734L8.71484 7.10156L8.51553 7.32579C8.57173 7.37574 8.61935 7.44194 8.65584 7.53134L8.93359 7.41797ZM8.71484 7.10156L8.92065 6.88329C8.79614 6.7659 8.64966 6.68027 8.48549 6.62555L8.39062 6.91016L8.29576 7.19476C8.38159 7.22337 8.45125 7.26535 8.50904 7.31984L8.71484 7.10156ZM8.39062 6.91016L8.48549 6.62555C8.32682 6.57266 8.15904 6.54766 7.98438 6.54766V6.84766V7.14766C8.10138 7.14766 8.20443 7.16432 8.29576 7.19476L8.39062 6.91016ZM7.98438 6.84766V6.54766C7.8319 6.54766 7.68205 6.56836 7.5356 6.60974L7.61719 6.89844L7.69877 7.18713C7.79191 7.16081 7.88685 7.14766 7.98438 7.14766V6.84766ZM7.61719 6.89844L7.5356 6.60974C7.39519 6.64943 7.25882 6.70411 7.12665 6.77319L7.26562 7.03906L7.4046 7.30493C7.5016 7.25423 7.5996 7.21516 7.69877 7.18713L7.61719 6.89844ZM7.26562 7.03906L7.12413 6.77453C6.99605 6.84304 6.87233 6.92421 6.75292 7.01741L6.9375 7.25391L7.12208 7.4904C7.21621 7.41694 7.31124 7.35488 7.40712 7.3036L7.26562 7.03906ZM6.9375 7.25391L6.75009 7.01965C6.63277 7.1135 6.52316 7.21733 6.42126 7.33088L6.64453 7.53125L6.8678 7.73162C6.9482 7.64204 7.0339 7.56097 7.12491 7.48817L6.9375 7.25391ZM6.64453 7.53125H6.94453V6.84375H6.64453H6.34453V7.53125H6.64453ZM6.64453 6.84375L6.85352 7.05898C7.00714 6.90981 7.17584 6.79868 7.36032 6.72272L7.24609 6.44531L7.13187 6.16791C6.87364 6.27424 6.64129 6.42873 6.43554 6.62852L6.64453 6.84375ZM7.24609 6.44531L7.36194 6.72204C7.53952 6.64771 7.76991 6.60469 8.0625 6.60469V6.30469V6.00469C7.71447 6.00469 7.40059 6.05542 7.13025 6.16858L7.24609 6.44531ZM8.0625 6.30469V6.60469C8.26183 6.60469 8.44048 6.63407 8.60096 6.6897L8.69922 6.40625L8.79748 6.1228C8.56733 6.04301 8.32151 6.00469 8.0625 6.00469V6.30469ZM8.69922 6.40625L8.60435 6.69086C8.76388 6.74403 8.89684 6.82075 9.00747 6.91931L9.20703 6.69531L9.40659 6.47131C9.23077 6.31467 9.02518 6.19868 8.79409 6.12164L8.69922 6.40625ZM9.20703 6.69531L9.00747 6.91931C9.1159 7.01591 9.20289 7.13672 9.26742 7.28661L9.54297 7.16797L9.81851 7.04933C9.72159 6.82422 9.58462 6.62992 9.40659 6.47131L9.20703 6.69531ZM9.54297 7.16797L9.26883 7.28981C9.33232 7.43267 9.36797 7.60481 9.36797 7.8125H9.66797H9.96797C9.96797 7.53581 9.92029 7.27827 9.81711 7.04613L9.54297 7.16797ZM9.66797 7.8125H9.36797C9.36797 8.01061 9.34464 8.18243 9.3017 8.33054L9.58984 8.41406L9.87798 8.49758C9.93922 8.28632 9.96797 8.0571 9.96797 7.8125H9.66797ZM9.58984 8.41406L9.30061 8.33442C9.25958 8.48341 9.19588 8.62412 9.1085 8.75737L9.35938 8.92188L9.61025 9.08638C9.73121 8.90192 9.82115 8.70409 9.87908 8.49371L9.58984 8.41406ZM9.35938 8.92188L9.10662 8.76028C9.02026 8.89535 8.90824 9.02867 8.76796 9.15959L8.97266 9.37891L9.17735 9.59822C9.34958 9.43748 9.49537 9.2661 9.61213 9.08347L9.35938 8.92188ZM8.97266 9.37891L8.76796 9.15959C8.62293 9.29495 8.44976 9.43527 8.24722 9.5803L8.42188 9.82422L8.59653 10.0681C8.81586 9.91108 9.00988 9.75453 9.17735 9.59822L8.97266 9.37891ZM8.42188 9.82422L8.24773 9.57994C7.98292 9.76871 7.7621 9.9313 7.5861 10.0673L7.76953 10.3047L7.95297 10.5421C8.12071 10.4125 8.33479 10.2547 8.59602 10.0685L8.42188 9.82422ZM7.76953 10.3047L7.58435 10.0687C7.40533 10.2091 7.25445 10.3472 7.13657 10.4832L7.36328 10.6797L7.58999 10.8762C7.67524 10.7778 7.79519 10.6659 7.95472 10.5407L7.76953 10.3047ZM7.36328 10.6797L7.13623 10.4836C7.0181 10.6204 6.92618 10.7679 6.86968 10.9268L7.15234 11.0273L7.43501 11.1278C7.46184 11.0524 7.51054 10.9682 7.59033 10.8758L7.36328 10.6797ZM7.15234 11.0273L6.86839 10.9305C6.81644 11.0829 6.79375 11.2496 6.79375 11.4258H7.09375H7.39375C7.39375 11.2999 7.41012 11.2009 7.4363 11.1241L7.15234 11.0273ZM7.09375 11.4258V11.7258H9.88281V11.4258V11.1258H7.09375V11.4258ZM9.88281 11.4258H9.58281V12H9.88281H10.1828V11.4258H9.88281ZM9.88281 12V11.7H6.42578V12V12.3H9.88281V12ZM6.42578 12H6.72578V11.7227H6.42578H6.12578V12H6.42578ZM6.42578 11.7227H6.72578C6.72578 11.504 6.74964 11.3218 6.79236 11.1723L6.50391 11.0898L6.21545 11.0074C6.154 11.2225 6.12578 11.4622 6.12578 11.7227H6.42578ZM6.50391 11.0898L6.79236 11.1723C6.83407 11.0263 6.90355 10.8848 7.00401 10.7472L6.76172 10.5703L6.51943 10.3934C6.3803 10.5839 6.27791 10.7888 6.21545 11.0074L6.50391 11.0898ZM6.76172 10.5703L7.00401 10.7472C7.10703 10.6061 7.24596 10.4589 7.42494 10.3066L7.23047 10.0781L7.036 9.8497C6.82956 10.0254 6.65599 10.2064 6.51943 10.3934L6.76172 10.5703ZM7.23047 10.0781L7.42343 10.3078C7.61213 10.1493 7.84479 9.96866 8.12243 9.76557L7.94531 9.52344L7.7682 9.2813C7.48334 9.48967 7.23943 9.6788 7.03751 9.84841L7.23047 10.0781ZM7.94531 9.52344L8.12027 9.76713C8.33217 9.615 8.51403 9.46594 8.66319 9.31965L8.45312 9.10547L8.24306 8.89129C8.12138 9.01063 7.9647 9.1402 7.77035 9.27974L7.94531 9.52344ZM8.45312 9.10547L8.66114 9.32164C8.81305 9.17546 8.94045 9.02398 9.03928 8.86648L8.78516 8.70703L8.53104 8.54758C8.46319 8.65571 8.36924 8.76985 8.24511 8.8893L8.45312 9.10547ZM8.78516 8.70703L9.03928 8.86648C9.13736 8.71015 9.20958 8.54705 9.25198 8.37745L8.96094 8.30469L8.66989 8.23193C8.64459 8.33316 8.59962 8.43828 8.53104 8.54758L8.78516 8.70703ZM8.96094 8.30469L9.25099 8.3813C9.29453 8.21645 9.31563 8.04473 9.31563 7.86719H9.01562H8.71562C8.71562 7.99693 8.70026 8.11688 8.67089 8.22807L8.96094 8.30469ZM13.5547 11.6016L13.3527 11.3797L13.3511 11.3812L13.5547 11.6016ZM10.9531 11.8633H10.6531V12.0305L10.7953 12.1184L10.9531 11.8633ZM10.9531 11.1836L11.1155 10.9314L10.6531 10.6336V11.1836H10.9531ZM12.668 11.4609L12.5651 11.1791L12.5636 11.1797L12.668 11.4609ZM13.3477 10.8242L13.0704 10.7095L13.0688 10.7136L13.3477 10.8242ZM13.0742 9.47266L12.8798 9.70112L12.8812 9.70232L13.0742 9.47266ZM11.5195 9.17578L11.5289 9.47578L11.5382 9.4752L11.5195 9.17578ZM11.2734 9.1875L11.2541 8.88812L11.2535 8.88816L11.2734 9.1875ZM11.0586 9.20703L10.7593 9.18663L10.7347 9.54806L11.0943 9.50489L11.0586 9.20703ZM11.25 6.39844V6.09844H10.9697L10.9507 6.37804L11.25 6.39844ZM13.8398 6.39844H14.1398V6.09844H13.8398V6.39844ZM13.8398 6.97656V7.27656H14.1398V6.97656H13.8398ZM11.8047 6.97656V6.67656H11.5246L11.5054 6.95595L11.8047 6.97656ZM11.6914 8.62109L11.3921 8.60048L11.3686 8.94185L11.7101 8.92051L11.6914 8.62109ZM11.957 8.60938L11.9654 8.90937L11.9737 8.90891L11.957 8.60938ZM13.5977 9.05469L13.3965 9.27735L13.4004 9.28068L13.5977 9.05469ZM13.9688 9.58594L13.6897 9.69618L13.6914 9.70034L13.9688 9.58594ZM14.0977 10.2891H13.7977C13.7977 10.5278 13.7568 10.7347 13.6808 10.9143L13.957 11.0312L14.2333 11.1482C14.3447 10.8851 14.3977 10.5972 14.3977 10.2891H14.0977ZM13.957 11.0312L13.6808 10.9143C13.6036 11.0965 13.4945 11.2506 13.3527 11.3797L13.5547 11.6016L13.7567 11.8234C13.9638 11.6348 14.123 11.4087 14.2333 11.1482L13.957 11.0312ZM13.5547 11.6016L13.3511 11.3812C13.2124 11.5094 13.0406 11.6118 12.8303 11.6857L12.9297 11.9688L13.0291 12.2518C13.3083 12.1538 13.5532 12.0114 13.7583 11.8219L13.5547 11.6016ZM12.9297 11.9688L12.8303 11.6857C12.622 11.7588 12.384 11.7977 12.1133 11.7977V12.0977V12.3977C12.4415 12.3977 12.7478 12.3505 13.0291 12.2518L12.9297 11.9688ZM12.1133 12.0977V11.7977C11.6115 11.7977 11.2924 11.7204 11.1109 11.6081L10.9531 11.8633L10.7953 12.1184C11.119 12.3186 11.5734 12.3977 12.1133 12.3977V12.0977ZM10.9531 11.8633H11.2531V11.1836H10.9531H10.6531V11.8633H10.9531ZM10.9531 11.1836L10.7907 11.4358C11.2126 11.7075 11.6576 11.8508 12.1211 11.8508V11.5508V11.2508C11.7878 11.2508 11.454 11.1493 11.1155 10.9314L10.9531 11.1836ZM12.1211 11.5508V11.8508C12.3536 11.8508 12.5721 11.8165 12.7723 11.7422L12.668 11.4609L12.5636 11.1797C12.441 11.2252 12.2949 11.2508 12.1211 11.2508V11.5508ZM12.668 11.4609L12.7709 11.7427C12.9683 11.6707 13.1433 11.5675 13.2905 11.4304L13.0859 11.2109L12.8814 10.9915C12.7994 11.0679 12.6958 11.1314 12.5651 11.1791L12.668 11.4609ZM13.0859 11.2109L13.2905 11.4304C13.4388 11.2922 13.5509 11.1256 13.6265 10.9348L13.3477 10.8242L13.0688 10.7136C13.0247 10.8249 12.9622 10.9162 12.8814 10.9915L13.0859 11.2109ZM13.3477 10.8242L13.6249 10.9389C13.7038 10.7481 13.7414 10.5433 13.7414 10.3281H13.4414H13.1414C13.1414 10.4724 13.1165 10.5983 13.0705 10.7095L13.3477 10.8242ZM13.4414 10.3281H13.7414C13.7414 9.88884 13.5898 9.5141 13.2672 9.24299L13.0742 9.47266L12.8812 9.70232C13.0482 9.84267 13.1414 10.0382 13.1414 10.3281H13.4414ZM13.0742 9.47266L13.2687 9.24419C12.9497 8.97276 12.5138 8.86016 12.0078 8.86016V9.16016V9.46016C12.4341 9.46016 12.7091 9.55588 12.8798 9.70112L13.0742 9.47266ZM12.0078 9.16016V8.86016C11.9289 8.86016 11.8463 8.86152 11.7602 8.86421L11.7695 9.16406L11.7789 9.46392C11.8594 9.4614 11.9357 9.46016 12.0078 9.46016V9.16016ZM11.7695 9.16406L11.7602 8.86421C11.6737 8.86691 11.5873 8.87096 11.5008 8.87637L11.5195 9.17578L11.5382 9.4752C11.6185 9.47018 11.6987 9.46642 11.7789 9.46392L11.7695 9.16406ZM11.5195 9.17578L11.5102 8.87593C11.4236 8.87863 11.3383 8.88269 11.2541 8.88812L11.2734 9.1875L11.2928 9.48688C11.3701 9.48189 11.4488 9.47814 11.5289 9.47563L11.5195 9.17578ZM11.2734 9.1875L11.2535 8.88816C11.1711 8.89366 11.0941 8.90062 11.0229 8.90917L11.0586 9.20703L11.0943 9.50489C11.1533 9.49782 11.2196 9.49176 11.2934 9.48684L11.2734 9.1875ZM11.0586 9.20703L11.3579 9.22743L11.5493 6.41884L11.25 6.39844L10.9507 6.37804L10.7593 9.18663L11.0586 9.20703ZM11.25 6.39844V6.69844H13.8398V6.39844V6.09844H11.25V6.39844ZM13.8398 6.39844H13.5398V6.97656H13.8398H14.1398V6.39844H13.8398ZM13.8398 6.97656V6.67656H11.8047V6.97656V7.27656H13.8398V6.97656ZM11.8047 6.97656L11.5054 6.95595L11.3921 8.60048L11.6914 8.62109L11.9907 8.64171L12.104 6.99718L11.8047 6.97656ZM11.6914 8.62109L11.7101 8.92051C11.7896 8.91554 11.8747 8.91178 11.9654 8.90926L11.957 8.60938L11.9487 8.30949C11.8519 8.31218 11.7599 8.31623 11.6727 8.32168L11.6914 8.62109ZM11.957 8.60938L11.9737 8.90891C12.0634 8.90393 12.141 8.90156 12.207 8.90156V8.60156V8.30156C12.1273 8.30156 12.0382 8.3044 11.9404 8.30984L11.957 8.60938ZM12.207 8.60156V8.90156C12.478 8.90156 12.7107 8.93724 12.909 9.00336L13.0039 8.71875L13.0988 8.43414C12.8284 8.34401 12.5299 8.30156 12.207 8.30156V8.60156ZM13.0039 8.71875L12.909 9.00336C13.1094 9.07015 13.2698 9.16278 13.3966 9.27732L13.5977 9.05469L13.7987 8.83206C13.6026 8.65493 13.3671 8.5236 13.0988 8.43414L13.0039 8.71875ZM13.5977 9.05469L13.4004 9.28068C13.5268 9.39108 13.6233 9.52788 13.6897 9.69617L13.9688 9.58594L14.2478 9.47571C14.1476 9.22212 13.9966 9.00475 13.795 8.82869L13.5977 9.05469ZM13.9688 9.58594L13.6914 9.70034C13.7602 9.86719 13.7977 10.0619 13.7977 10.2891H14.0977H14.3977C14.3977 9.99544 14.3491 9.72135 14.2461 9.47154L13.9688 9.58594Z" fill="black" mask="url(#path-4-outside-2_1_11)"/>
<path d="M10.9697 52H9.85547L7.83545 48.9204C7.71696 48.7404 7.63493 48.6048 7.58936 48.5137H7.57568C7.59391 48.6868 7.60303 48.9512 7.60303 49.3066V52H6.56055V47.0986H7.75L9.69482 50.0825C9.78369 50.217 9.86572 50.3503 9.94092 50.4824H9.95459C9.93636 50.3685 9.92725 50.144 9.92725 49.8091V47.0986H10.9697V52ZM13.6528 52.0854C13.0695 52.0854 12.6104 51.9225 12.2754 51.5967C11.9427 51.2686 11.7764 50.8242 11.7764 50.2637C11.7764 49.6849 11.9495 49.2326 12.2959 48.9067C12.6423 48.5786 13.1105 48.4146 13.7007 48.4146C14.2817 48.4146 14.7375 48.5786 15.0679 48.9067C15.3983 49.2326 15.5635 49.6644 15.5635 50.2021C15.5635 50.7832 15.3926 51.2424 15.0508 51.5796C14.7113 51.9168 14.2453 52.0854 13.6528 52.0854ZM13.6802 49.2417C13.425 49.2417 13.2267 49.3294 13.0854 49.5049C12.9442 49.6803 12.8735 49.9287 12.8735 50.25C12.8735 50.9222 13.1447 51.2583 13.687 51.2583C14.2043 51.2583 14.4629 50.9131 14.4629 50.2227C14.4629 49.5687 14.202 49.2417 13.6802 49.2417ZM19.1079 52H18.0859V51.4976H18.0723C17.8376 51.8895 17.4901 52.0854 17.0298 52.0854C16.6903 52.0854 16.4225 51.9897 16.2266 51.7983C16.0329 51.6047 15.936 51.3472 15.936 51.0259C15.936 50.3468 16.3382 49.9549 17.1426 49.8501L18.0928 49.7236C18.0928 49.3408 17.8854 49.1494 17.4707 49.1494C17.0537 49.1494 16.6572 49.2736 16.2812 49.522V48.7085C16.4316 48.631 16.6367 48.5627 16.8965 48.5034C17.1585 48.4442 17.3966 48.4146 17.6108 48.4146C18.6089 48.4146 19.1079 48.9124 19.1079 49.9082V52ZM18.0928 50.5781V50.3423L17.457 50.4243C17.1061 50.4699 16.9307 50.6283 16.9307 50.8994C16.9307 51.0225 16.9728 51.1239 17.0571 51.2036C17.1437 51.2811 17.2599 51.3198 17.4058 51.3198C17.6086 51.3198 17.7738 51.2503 17.9014 51.1113C18.029 50.9701 18.0928 50.7923 18.0928 50.5781ZM23.3223 52H22.2456V50.0107C22.2456 49.498 22.0588 49.2417 21.6851 49.2417C21.4937 49.2417 21.3387 49.3135 21.2202 49.457C21.1017 49.6006 21.0425 49.7829 21.0425 50.0039V52H19.9624V46.8184H21.0425V49.0195H21.0562C21.3205 48.6162 21.6794 48.4146 22.1328 48.4146C22.9258 48.4146 23.3223 48.8931 23.3223 49.8501V52ZM30.3325 52H29.0645L28.3022 50.7388C28.2453 50.6431 28.1906 50.5576 28.1382 50.4824C28.0858 50.4072 28.0322 50.3434 27.9775 50.291C27.9251 50.2363 27.8693 50.1953 27.8101 50.168C27.7531 50.1383 27.6904 50.1235 27.6221 50.1235H27.3247V52H26.2207V47.0986H27.9707C29.1602 47.0986 29.7549 47.543 29.7549 48.4316C29.7549 48.6025 29.7287 48.7609 29.6763 48.9067C29.6239 49.0503 29.5498 49.1802 29.4541 49.2964C29.3584 49.4126 29.2422 49.5129 29.1055 49.5972C28.971 49.6815 28.8206 49.7476 28.6543 49.7954V49.8091C28.7272 49.8319 28.7979 49.8695 28.8662 49.9219C28.9346 49.972 29.0007 50.0312 29.0645 50.0996C29.1283 50.168 29.1886 50.242 29.2456 50.3218C29.3049 50.3993 29.3584 50.4756 29.4062 50.5508L30.3325 52ZM27.3247 47.9258V49.2896H27.8032C28.0402 49.2896 28.2305 49.2212 28.374 49.0845C28.5199 48.9455 28.5928 48.7734 28.5928 48.5684C28.5928 48.14 28.3364 47.9258 27.8237 47.9258H27.3247ZM32.1782 52.0854C31.5949 52.0854 31.1357 51.9225 30.8008 51.5967C30.4681 51.2686 30.3018 50.8242 30.3018 50.2637C30.3018 49.6849 30.4749 49.2326 30.8213 48.9067C31.1676 48.5786 31.6359 48.4146 32.2261 48.4146C32.8071 48.4146 33.2629 48.5786 33.5933 48.9067C33.9237 49.2326 34.0889 49.6644 34.0889 50.2021C34.0889 50.7832 33.918 51.2424 33.5762 51.5796C33.2367 51.9168 32.7707 52.0854 32.1782 52.0854ZM32.2056 49.2417C31.9504 49.2417 31.7521 49.3294 31.6108 49.5049C31.4696 49.6803 31.3989 49.9287 31.3989 50.25C31.3989 50.9222 31.6701 51.2583 32.2124 51.2583C32.7297 51.2583 32.9883 50.9131 32.9883 50.2227C32.9883 49.5687 32.7274 49.2417 32.2056 49.2417ZM35.8696 52H34.7896V46.8184H35.8696V52ZM39.6909 52H38.6689V51.4976H38.6553C38.4206 51.8895 38.0731 52.0854 37.6128 52.0854C37.2733 52.0854 37.0055 51.9897 36.8096 51.7983C36.6159 51.6047 36.519 51.3472 36.519 51.0259C36.519 50.3468 36.9212 49.9549 37.7256 49.8501L38.6758 49.7236C38.6758 49.3408 38.4684 49.1494 38.0537 49.1494C37.6367 49.1494 37.2402 49.2736 36.8643 49.522V48.7085C37.0146 48.631 37.2197 48.5627 37.4795 48.5034C37.7415 48.4442 37.9797 48.4146 38.1938 48.4146C39.1919 48.4146 39.6909 48.9124 39.6909 49.9082V52ZM38.6758 50.5781V50.3423L38.04 50.4243C37.6891 50.4699 37.5137 50.6283 37.5137 50.8994C37.5137 51.0225 37.5558 51.1239 37.6401 51.2036C37.7267 51.2811 37.8429 51.3198 37.9888 51.3198C38.1916 51.3198 38.3568 51.2503 38.4844 51.1113C38.612 50.9701 38.6758 50.7923 38.6758 50.5781ZM43.9258 52H42.8491V50.0552C42.8491 49.5129 42.6554 49.2417 42.2681 49.2417C42.0812 49.2417 41.9274 49.3135 41.8066 49.457C41.6859 49.6006 41.6255 49.7829 41.6255 50.0039V52H40.5454V48.5H41.6255V49.0537H41.6392C41.8966 48.6276 42.2715 48.4146 42.7637 48.4146C43.5384 48.4146 43.9258 48.8953 43.9258 49.8569V52ZM48.2085 52H47.1284V51.5181H47.1147C46.8687 51.8963 46.5075 52.0854 46.0312 52.0854C45.5938 52.0854 45.2417 51.9316 44.9751 51.624C44.7085 51.3141 44.5752 50.8823 44.5752 50.3286C44.5752 49.7498 44.7222 49.2861 45.0161 48.9375C45.3101 48.5889 45.6951 48.4146 46.1714 48.4146C46.6226 48.4146 46.937 48.5763 47.1147 48.8999H47.1284V46.8184H48.2085V52ZM47.1489 50.2979V50.0347C47.1489 49.8068 47.0828 49.6177 46.9507 49.4673C46.8185 49.3169 46.6465 49.2417 46.4346 49.2417C46.1953 49.2417 46.0085 49.3363 45.874 49.5254C45.7396 49.7122 45.6724 49.9697 45.6724 50.2979C45.6724 50.6055 45.7373 50.8424 45.8672 51.0088C45.9971 51.1751 46.1771 51.2583 46.4072 51.2583C46.626 51.2583 46.8037 51.1706 46.9404 50.9951C47.0794 50.8197 47.1489 50.5872 47.1489 50.2979Z" fill="black"/>
</svg>
