<svg width="97" height="29" viewBox="0 0 97 29" fill="none" xmlns="http://www.w3.org/2000/svg">
<mask id="path-1-outside-1_5_22" maskUnits="userSpaceOnUse" x="17" y="7" width="62" height="18" fill="black">
<rect fill="white" x="17" y="7" width="62" height="18"/>
<path d="M19.7812 15.7656V20H18.4688V8.79688H21.5469C22.7448 8.79688 23.6719 9.08854 24.3281 9.67188C24.9896 10.2552 25.3203 11.0781 25.3203 12.1406C25.3203 13.2031 24.9531 14.0729 24.2188 14.75C23.4896 15.4271 22.5026 15.7656 21.2578 15.7656H19.7812ZM19.7812 9.98438V14.5781H21.1562C22.0625 14.5781 22.7526 14.3724 23.2266 13.9609C23.7057 13.5443 23.9453 12.9583 23.9453 12.2031C23.9453 10.724 23.0703 9.98438 21.3203 9.98438H19.7812ZM32.2375 13.2969C32.0135 13.125 31.6906 13.0391 31.2688 13.0391C30.7219 13.0391 30.2635 13.2969 29.8938 13.8125C29.5292 14.3281 29.3469 15.0312 29.3469 15.9219V20H28.0656V12H29.3469V13.6484H29.3781C29.5604 13.0859 29.8391 12.6484 30.2141 12.3359C30.5891 12.0182 31.0083 11.8594 31.4719 11.8594C31.8052 11.8594 32.0604 11.8958 32.2375 11.9688V13.2969ZM37.7719 20.1875C36.5896 20.1875 35.6443 19.8151 34.9359 19.0703C34.2328 18.3203 33.8813 17.3281 33.8813 16.0938C33.8813 14.75 34.2484 13.7005 34.9828 12.9453C35.7172 12.1901 36.7094 11.8125 37.9594 11.8125C39.1521 11.8125 40.0818 12.1797 40.7484 12.9141C41.4203 13.6484 41.7563 14.6667 41.7563 15.9688C41.7563 17.2448 41.3943 18.2682 40.6703 19.0391C39.9516 19.8047 38.9854 20.1875 37.7719 20.1875ZM37.8656 12.8906C37.0427 12.8906 36.3917 13.1719 35.9125 13.7344C35.4333 14.2917 35.1938 15.0625 35.1938 16.0469C35.1938 16.9948 35.4359 17.7422 35.9203 18.2891C36.4047 18.8359 37.0531 19.1094 37.8656 19.1094C38.6938 19.1094 39.3292 18.8411 39.7719 18.3047C40.2198 17.7682 40.4438 17.0052 40.4438 16.0156C40.4438 15.0156 40.2198 14.2448 39.7719 13.7031C39.3292 13.1615 38.6938 12.8906 37.8656 12.8906ZM45.8844 19.6641C45.8844 20.9766 45.6187 21.987 45.0875 22.6953C44.5615 23.4089 43.8062 23.7656 42.8219 23.7656C42.4573 23.7656 42.1031 23.6823 41.7594 23.5156V22.3203C42.1448 22.5547 42.5094 22.6719 42.8531 22.6719C44.0198 22.6719 44.6031 21.7396 44.6031 19.875V12H45.8844V19.6641ZM45.2594 9.96875C45.0302 9.96875 44.8349 9.89062 44.6734 9.73438C44.512 9.57812 44.4312 9.38021 44.4312 9.14062C44.4312 8.90104 44.512 8.70312 44.6734 8.54688C44.8349 8.38542 45.0302 8.30469 45.2594 8.30469C45.4937 8.30469 45.6917 8.38542 45.8531 8.54688C46.0198 8.70312 46.1031 8.90104 46.1031 9.14062C46.1031 9.36979 46.0198 9.5651 45.8531 9.72656C45.6917 9.88802 45.4937 9.96875 45.2594 9.96875ZM55.7078 16.3203H50.0594C50.0802 17.2109 50.3198 17.8984 50.7781 18.3828C51.2365 18.8672 51.8667 19.1094 52.6688 19.1094C53.5698 19.1094 54.3979 18.8125 55.1531 18.2188V19.4219C54.45 19.9323 53.5203 20.1875 52.3641 20.1875C51.2339 20.1875 50.3458 19.8255 49.7 19.1016C49.0542 18.3724 48.7313 17.349 48.7313 16.0312C48.7313 14.7865 49.0828 13.7734 49.7859 12.9922C50.4943 12.2057 51.3719 11.8125 52.4188 11.8125C53.4656 11.8125 54.2755 12.151 54.8484 12.8281C55.4214 13.5052 55.7078 14.4453 55.7078 15.6484V16.3203ZM54.3953 15.2344C54.3901 14.4948 54.2104 13.9193 53.8563 13.5078C53.5073 13.0964 53.0203 12.8906 52.3953 12.8906C51.7911 12.8906 51.2781 13.1068 50.8563 13.5391C50.4344 13.9714 50.174 14.5365 50.075 15.2344H54.3953ZM63.9062 19.6328C63.2917 20.0026 62.5625 20.1875 61.7188 20.1875C60.5781 20.1875 59.6562 19.8177 58.9531 19.0781C58.2552 18.3333 57.9062 17.3698 57.9062 16.1875C57.9062 14.8698 58.2839 13.8125 59.0391 13.0156C59.7943 12.2135 60.8021 11.8125 62.0625 11.8125C62.7656 11.8125 63.3854 11.9427 63.9219 12.2031V13.5156C63.3281 13.099 62.6927 12.8906 62.0156 12.8906C61.1979 12.8906 60.526 13.1849 60 13.7734C59.4792 14.3568 59.2188 15.125 59.2188 16.0781C59.2188 17.0156 59.4635 17.7552 59.9531 18.2969C60.4479 18.8385 61.1094 19.1094 61.9375 19.1094C62.6354 19.1094 63.2917 18.8776 63.9062 18.4141V19.6328ZM70.3547 19.9219C70.0526 20.0885 69.6542 20.1719 69.1594 20.1719C67.7583 20.1719 67.0578 19.3906 67.0578 17.8281V13.0938H65.6828V12H67.0578V10.0469L68.3391 9.63281V12H70.3547V13.0938H68.3391V17.6016C68.3391 18.138 68.4302 18.5208 68.6125 18.75C68.7948 18.9792 69.0969 19.0938 69.5187 19.0938C69.8417 19.0938 70.1203 19.0052 70.3547 18.8281V19.9219ZM72.3812 19.7109V18.3359C73.0792 18.8516 73.8474 19.1094 74.6859 19.1094C75.8109 19.1094 76.3734 18.7344 76.3734 17.9844C76.3734 17.7708 76.324 17.5911 76.225 17.4453C76.1312 17.2943 76.001 17.1615 75.8344 17.0469C75.6729 16.9323 75.4802 16.8307 75.2562 16.7422C75.0375 16.6484 74.8005 16.5521 74.5453 16.4531C74.1911 16.3125 73.8786 16.1719 73.6078 16.0312C73.3422 15.8854 73.1182 15.724 72.9359 15.5469C72.7589 15.3646 72.6234 15.1589 72.5297 14.9297C72.4411 14.7005 72.3969 14.4323 72.3969 14.125C72.3969 13.75 72.4828 13.4193 72.6547 13.1328C72.8266 12.8411 73.0557 12.599 73.3422 12.4062C73.6286 12.2083 73.9542 12.0599 74.3187 11.9609C74.6885 11.862 75.0687 11.8125 75.4594 11.8125C76.1521 11.8125 76.7719 11.9323 77.3187 12.1719V13.4688C76.7302 13.0833 76.0531 12.8906 75.2875 12.8906C75.0479 12.8906 74.8318 12.9193 74.6391 12.9766C74.4464 13.0286 74.2797 13.1042 74.1391 13.2031C74.0036 13.3021 73.8969 13.4219 73.8187 13.5625C73.7458 13.6979 73.7094 13.849 73.7094 14.0156C73.7094 14.224 73.7458 14.3984 73.8187 14.5391C73.8969 14.6797 74.0089 14.8047 74.1547 14.9141C74.3005 15.0234 74.4776 15.1224 74.6859 15.2109C74.8943 15.2995 75.1312 15.3958 75.3969 15.5C75.751 15.6354 76.0687 15.776 76.35 15.9219C76.6312 16.0625 76.8708 16.224 77.0687 16.4062C77.2667 16.5833 77.4177 16.7891 77.5219 17.0234C77.6312 17.2578 77.6859 17.5365 77.6859 17.8594C77.6859 18.2552 77.5974 18.599 77.4203 18.8906C77.2484 19.1823 77.0167 19.4245 76.725 19.6172C76.4333 19.8099 76.0974 19.9531 75.7172 20.0469C75.337 20.1406 74.9385 20.1875 74.5219 20.1875C73.699 20.1875 72.9854 20.0286 72.3812 19.7109Z"/>
</mask>
<path d="M19.7812 15.7656V20H18.4688V8.79688H21.5469C22.7448 8.79688 23.6719 9.08854 24.3281 9.67188C24.9896 10.2552 25.3203 11.0781 25.3203 12.1406C25.3203 13.2031 24.9531 14.0729 24.2188 14.75C23.4896 15.4271 22.5026 15.7656 21.2578 15.7656H19.7812ZM19.7812 9.98438V14.5781H21.1562C22.0625 14.5781 22.7526 14.3724 23.2266 13.9609C23.7057 13.5443 23.9453 12.9583 23.9453 12.2031C23.9453 10.724 23.0703 9.98438 21.3203 9.98438H19.7812ZM32.2375 13.2969C32.0135 13.125 31.6906 13.0391 31.2688 13.0391C30.7219 13.0391 30.2635 13.2969 29.8938 13.8125C29.5292 14.3281 29.3469 15.0312 29.3469 15.9219V20H28.0656V12H29.3469V13.6484H29.3781C29.5604 13.0859 29.8391 12.6484 30.2141 12.3359C30.5891 12.0182 31.0083 11.8594 31.4719 11.8594C31.8052 11.8594 32.0604 11.8958 32.2375 11.9688V13.2969ZM37.7719 20.1875C36.5896 20.1875 35.6443 19.8151 34.9359 19.0703C34.2328 18.3203 33.8813 17.3281 33.8813 16.0938C33.8813 14.75 34.2484 13.7005 34.9828 12.9453C35.7172 12.1901 36.7094 11.8125 37.9594 11.8125C39.1521 11.8125 40.0818 12.1797 40.7484 12.9141C41.4203 13.6484 41.7563 14.6667 41.7563 15.9688C41.7563 17.2448 41.3943 18.2682 40.6703 19.0391C39.9516 19.8047 38.9854 20.1875 37.7719 20.1875ZM37.8656 12.8906C37.0427 12.8906 36.3917 13.1719 35.9125 13.7344C35.4333 14.2917 35.1938 15.0625 35.1938 16.0469C35.1938 16.9948 35.4359 17.7422 35.9203 18.2891C36.4047 18.8359 37.0531 19.1094 37.8656 19.1094C38.6938 19.1094 39.3292 18.8411 39.7719 18.3047C40.2198 17.7682 40.4438 17.0052 40.4438 16.0156C40.4438 15.0156 40.2198 14.2448 39.7719 13.7031C39.3292 13.1615 38.6938 12.8906 37.8656 12.8906ZM45.8844 19.6641C45.8844 20.9766 45.6187 21.987 45.0875 22.6953C44.5615 23.4089 43.8062 23.7656 42.8219 23.7656C42.4573 23.7656 42.1031 23.6823 41.7594 23.5156V22.3203C42.1448 22.5547 42.5094 22.6719 42.8531 22.6719C44.0198 22.6719 44.6031 21.7396 44.6031 19.875V12H45.8844V19.6641ZM45.2594 9.96875C45.0302 9.96875 44.8349 9.89062 44.6734 9.73438C44.512 9.57812 44.4312 9.38021 44.4312 9.14062C44.4312 8.90104 44.512 8.70312 44.6734 8.54688C44.8349 8.38542 45.0302 8.30469 45.2594 8.30469C45.4937 8.30469 45.6917 8.38542 45.8531 8.54688C46.0198 8.70312 46.1031 8.90104 46.1031 9.14062C46.1031 9.36979 46.0198 9.5651 45.8531 9.72656C45.6917 9.88802 45.4937 9.96875 45.2594 9.96875ZM55.7078 16.3203H50.0594C50.0802 17.2109 50.3198 17.8984 50.7781 18.3828C51.2365 18.8672 51.8667 19.1094 52.6688 19.1094C53.5698 19.1094 54.3979 18.8125 55.1531 18.2188V19.4219C54.45 19.9323 53.5203 20.1875 52.3641 20.1875C51.2339 20.1875 50.3458 19.8255 49.7 19.1016C49.0542 18.3724 48.7313 17.349 48.7313 16.0312C48.7313 14.7865 49.0828 13.7734 49.7859 12.9922C50.4943 12.2057 51.3719 11.8125 52.4188 11.8125C53.4656 11.8125 54.2755 12.151 54.8484 12.8281C55.4214 13.5052 55.7078 14.4453 55.7078 15.6484V16.3203ZM54.3953 15.2344C54.3901 14.4948 54.2104 13.9193 53.8563 13.5078C53.5073 13.0964 53.0203 12.8906 52.3953 12.8906C51.7911 12.8906 51.2781 13.1068 50.8563 13.5391C50.4344 13.9714 50.174 14.5365 50.075 15.2344H54.3953ZM63.9062 19.6328C63.2917 20.0026 62.5625 20.1875 61.7188 20.1875C60.5781 20.1875 59.6562 19.8177 58.9531 19.0781C58.2552 18.3333 57.9062 17.3698 57.9062 16.1875C57.9062 14.8698 58.2839 13.8125 59.0391 13.0156C59.7943 12.2135 60.8021 11.8125 62.0625 11.8125C62.7656 11.8125 63.3854 11.9427 63.9219 12.2031V13.5156C63.3281 13.099 62.6927 12.8906 62.0156 12.8906C61.1979 12.8906 60.526 13.1849 60 13.7734C59.4792 14.3568 59.2188 15.125 59.2188 16.0781C59.2188 17.0156 59.4635 17.7552 59.9531 18.2969C60.4479 18.8385 61.1094 19.1094 61.9375 19.1094C62.6354 19.1094 63.2917 18.8776 63.9062 18.4141V19.6328ZM70.3547 19.9219C70.0526 20.0885 69.6542 20.1719 69.1594 20.1719C67.7583 20.1719 67.0578 19.3906 67.0578 17.8281V13.0938H65.6828V12H67.0578V10.0469L68.3391 9.63281V12H70.3547V13.0938H68.3391V17.6016C68.3391 18.138 68.4302 18.5208 68.6125 18.75C68.7948 18.9792 69.0969 19.0938 69.5187 19.0938C69.8417 19.0938 70.1203 19.0052 70.3547 18.8281V19.9219ZM72.3812 19.7109V18.3359C73.0792 18.8516 73.8474 19.1094 74.6859 19.1094C75.8109 19.1094 76.3734 18.7344 76.3734 17.9844C76.3734 17.7708 76.324 17.5911 76.225 17.4453C76.1312 17.2943 76.001 17.1615 75.8344 17.0469C75.6729 16.9323 75.4802 16.8307 75.2562 16.7422C75.0375 16.6484 74.8005 16.5521 74.5453 16.4531C74.1911 16.3125 73.8786 16.1719 73.6078 16.0312C73.3422 15.8854 73.1182 15.724 72.9359 15.5469C72.7589 15.3646 72.6234 15.1589 72.5297 14.9297C72.4411 14.7005 72.3969 14.4323 72.3969 14.125C72.3969 13.75 72.4828 13.4193 72.6547 13.1328C72.8266 12.8411 73.0557 12.599 73.3422 12.4062C73.6286 12.2083 73.9542 12.0599 74.3187 11.9609C74.6885 11.862 75.0687 11.8125 75.4594 11.8125C76.1521 11.8125 76.7719 11.9323 77.3187 12.1719V13.4688C76.7302 13.0833 76.0531 12.8906 75.2875 12.8906C75.0479 12.8906 74.8318 12.9193 74.6391 12.9766C74.4464 13.0286 74.2797 13.1042 74.1391 13.2031C74.0036 13.3021 73.8969 13.4219 73.8187 13.5625C73.7458 13.6979 73.7094 13.849 73.7094 14.0156C73.7094 14.224 73.7458 14.3984 73.8187 14.5391C73.8969 14.6797 74.0089 14.8047 74.1547 14.9141C74.3005 15.0234 74.4776 15.1224 74.6859 15.2109C74.8943 15.2995 75.1312 15.3958 75.3969 15.5C75.751 15.6354 76.0687 15.776 76.35 15.9219C76.6312 16.0625 76.8708 16.224 77.0687 16.4062C77.2667 16.5833 77.4177 16.7891 77.5219 17.0234C77.6312 17.2578 77.6859 17.5365 77.6859 17.8594C77.6859 18.2552 77.5974 18.599 77.4203 18.8906C77.2484 19.1823 77.0167 19.4245 76.725 19.6172C76.4333 19.8099 76.0974 19.9531 75.7172 20.0469C75.337 20.1406 74.9385 20.1875 74.5219 20.1875C73.699 20.1875 72.9854 20.0286 72.3812 19.7109Z" fill="black"/>
<path d="M19.7812 15.7656V15.1156H19.1313V15.7656H19.7812ZM19.7812 20V20.65H20.4312V20H19.7812ZM18.4688 20H17.8188V20.65H18.4688V20ZM18.4688 8.79688V8.14688H17.8188V8.79688H18.4688ZM24.3281 9.67188L23.8963 10.1577L23.8982 10.1594L24.3281 9.67188ZM24.2188 14.75L23.7781 14.2721L23.7765 14.2737L24.2188 14.75ZM19.7812 9.98438V9.33438H19.1313V9.98438H19.7812ZM19.7812 14.5781H19.1313V15.2281H19.7812V14.5781ZM23.2266 13.9609L23.6527 14.4518L23.6531 14.4514L23.2266 13.9609ZM19.7812 15.7656H19.1313V20H19.7812H20.4312V15.7656H19.7812ZM19.7812 20V19.35H18.4688V20V20.65H19.7812V20ZM18.4688 20H19.1187V8.79688H18.4688H17.8188V20H18.4688ZM18.4688 8.79688V9.44687H21.5469V8.79688V8.14688H18.4688V8.79688ZM21.5469 8.79688V9.44687C22.644 9.44687 23.3964 9.71337 23.8963 10.1577L24.3281 9.67188L24.76 9.18606C23.9473 8.46371 22.8456 8.14688 21.5469 8.14688V8.79688ZM24.3281 9.67188L23.8982 10.1594C24.3913 10.5942 24.6703 11.223 24.6703 12.1406H25.3203H25.9703C25.9703 10.9332 25.5879 9.91621 24.7581 9.18437L24.3281 9.67188ZM25.3203 12.1406H24.6703C24.6703 13.0346 24.3698 13.7266 23.7781 14.2721L24.2188 14.75L24.6594 15.2279C25.5365 14.4192 25.9703 13.3717 25.9703 12.1406H25.3203ZM24.2188 14.75L23.7765 14.2737C23.1957 14.813 22.3815 15.1156 21.2578 15.1156V15.7656V16.4156C22.6237 16.4156 23.7835 16.0412 24.661 15.2263L24.2188 14.75ZM21.2578 15.7656V15.1156H19.7812V15.7656V16.4156H21.2578V15.7656ZM19.7812 9.98438H19.1313V14.5781H19.7812H20.4312V9.98438H19.7812ZM19.7812 14.5781V15.2281H21.1562V14.5781V13.9281H19.7812V14.5781ZM21.1562 14.5781V15.2281C22.1508 15.2281 23.0175 15.0032 23.6527 14.4518L23.2266 13.9609L22.8004 13.4701C22.4877 13.7416 21.9742 13.9281 21.1562 13.9281V14.5781ZM23.2266 13.9609L23.6531 14.4514C24.3013 13.8878 24.5953 13.1074 24.5953 12.2031H23.9453H23.2953C23.2953 12.8093 23.1102 13.2008 22.8 13.4704L23.2266 13.9609ZM23.9453 12.2031H24.5953C24.5953 11.332 24.3325 10.5699 23.7087 10.0426C23.1057 9.53303 22.2713 9.33438 21.3203 9.33438V9.98438V10.6344C22.1193 10.6344 22.5974 10.8055 22.8695 11.0355C23.1206 11.2478 23.2953 11.5951 23.2953 12.2031H23.9453ZM21.3203 9.98438V9.33438H19.7812V9.98438V10.6344H21.3203V9.98438ZM32.2375 13.2969L31.8418 13.8125L32.8875 14.6151V13.2969H32.2375ZM29.8938 13.8125L29.3655 13.4337L29.363 13.4372L29.8938 13.8125ZM29.3469 20V20.65H29.9969V20H29.3469ZM28.0656 20H27.4156V20.65H28.0656V20ZM28.0656 12V11.35H27.4156V12H28.0656ZM29.3469 12H29.9969V11.35H29.3469V12ZM29.3469 13.6484H28.6969V14.2984H29.3469V13.6484ZM29.3781 13.6484V14.2984H29.8508L29.9965 13.8488L29.3781 13.6484ZM30.2141 12.3359L30.6302 12.8353L30.6342 12.8319L30.2141 12.3359ZM32.2375 11.9688H32.8875V11.5334L32.485 11.3677L32.2375 11.9688ZM32.2375 13.2969L32.6332 12.7812C32.2518 12.4885 31.7662 12.3891 31.2688 12.3891V13.0391V13.6891C31.615 13.6891 31.7753 13.7615 31.8418 13.8125L32.2375 13.2969ZM31.2688 13.0391V12.3891C30.4767 12.3891 29.835 12.7791 29.3655 13.4337L29.8938 13.8125L30.422 14.1913C30.6921 13.8147 30.9671 13.6891 31.2688 13.6891V13.0391ZM29.8938 13.8125L29.363 13.4372C28.8949 14.0993 28.6969 14.9501 28.6969 15.9219H29.3469H29.9969C29.9969 15.1124 30.1635 14.5569 30.4245 14.1878L29.8938 13.8125ZM29.3469 15.9219H28.6969V20H29.3469H29.9969V15.9219H29.3469ZM29.3469 20V19.35H28.0656V20V20.65H29.3469V20ZM28.0656 20H28.7156V12H28.0656H27.4156V20H28.0656ZM28.0656 12V12.65H29.3469V12V11.35H28.0656V12ZM29.3469 12H28.6969V13.6484H29.3469H29.9969V12H29.3469ZM29.3469 13.6484V14.2984H29.3781V13.6484V12.9984H29.3469V13.6484ZM29.3781 13.6484L29.9965 13.8488C30.149 13.3782 30.3677 13.054 30.6302 12.8353L30.2141 12.3359L29.7979 11.8366C29.3104 12.2428 28.9719 12.7936 28.7598 13.448L29.3781 13.6484ZM30.2141 12.3359L30.6342 12.8319C30.8995 12.6071 31.172 12.5094 31.4719 12.5094V11.8594V11.2094C30.8447 11.2094 30.2786 11.4293 29.7939 11.84L30.2141 12.3359ZM31.4719 11.8594V12.5094C31.7738 12.5094 31.9292 12.5447 31.99 12.5698L32.2375 11.9688L32.485 11.3677C32.1917 11.2469 31.8366 11.2094 31.4719 11.2094V11.8594ZM32.2375 11.9688H31.5875V13.2969H32.2375H32.8875V11.9688H32.2375ZM34.9359 19.0703L34.4617 19.5149L34.4649 19.5183L34.9359 19.0703ZM40.7484 12.9141L40.2672 13.351L40.2689 13.3528L40.7484 12.9141ZM40.6703 19.0391L40.1965 18.5941L40.1964 18.5942L40.6703 19.0391ZM35.9125 13.7344L36.4054 14.1582L36.4073 14.1559L35.9125 13.7344ZM39.7719 18.3047L39.2729 17.8881L39.2705 17.891L39.7719 18.3047ZM39.7719 13.7031L39.2686 14.1145L39.271 14.1173L39.7719 13.7031ZM37.7719 20.1875V19.5375C36.7384 19.5375 35.9738 19.2184 35.4069 18.6224L34.9359 19.0703L34.4649 19.5183C35.3148 20.4118 36.4408 20.8375 37.7719 20.8375V20.1875ZM34.9359 19.0703L35.4101 18.6258C34.8419 18.0196 34.5313 17.1981 34.5313 16.0938H33.8813H33.2313C33.2313 17.4581 33.6237 18.621 34.4617 19.5149L34.9359 19.0703ZM33.8813 16.0938H34.5313C34.5313 14.8705 34.8625 14.0014 35.4488 13.3985L34.9828 12.9453L34.5168 12.4922C33.6344 13.3997 33.2313 14.6295 33.2313 16.0938H33.8813ZM34.9828 12.9453L35.4488 13.3985C36.0382 12.7924 36.8496 12.4625 37.9594 12.4625V11.8125V11.1625C36.5692 11.1625 35.3962 11.5878 34.5168 12.4922L34.9828 12.9453ZM37.9594 11.8125V12.4625C39.0091 12.4625 39.7484 12.7795 40.2672 13.351L40.7484 12.9141L41.2297 12.4772C40.4151 11.5798 39.295 11.1625 37.9594 11.1625V11.8125ZM40.7484 12.9141L40.2689 13.3528C40.8008 13.9342 41.1063 14.7777 41.1063 15.9688H41.7563H42.4063C42.4063 14.5556 42.0398 13.3627 41.228 12.4753L40.7484 12.9141ZM41.7563 15.9688H41.1063C41.1063 17.1156 40.7847 17.9678 40.1965 18.5941L40.6703 19.0391L41.1441 19.484C42.0038 18.5687 42.4063 17.374 42.4063 15.9688H41.7563ZM40.6703 19.0391L40.1964 18.5942C39.62 19.2082 38.8365 19.5375 37.7719 19.5375V20.1875V20.8375C39.1344 20.8375 40.2831 20.4012 41.1442 19.4839L40.6703 19.0391ZM37.8656 12.8906V12.2406C36.8766 12.2406 36.0353 12.5878 35.4177 13.3129L35.9125 13.7344L36.4073 14.1559C36.748 13.7559 37.2088 13.5406 37.8656 13.5406V12.8906ZM35.9125 13.7344L35.4196 13.3106C34.8091 14.0207 34.5438 14.9602 34.5438 16.0469H35.1938H35.8438C35.8438 15.1648 36.0576 14.5626 36.4054 14.1581L35.9125 13.7344ZM35.1938 16.0469H34.5438C34.5438 17.1052 34.8159 18.0225 35.4337 18.72L35.9203 18.2891L36.4069 17.8581C36.056 17.4619 35.8438 16.8844 35.8438 16.0469H35.1938ZM35.9203 18.2891L35.4337 18.72C36.0561 19.4228 36.8904 19.7594 37.8656 19.7594V19.1094V18.4594C37.2159 18.4594 36.7532 18.2491 36.4069 17.8581L35.9203 18.2891ZM37.8656 19.1094V19.7594C38.8468 19.7594 39.6831 19.4335 40.2732 18.7184L39.7719 18.3047L39.2705 17.891C38.9752 18.2488 38.5407 18.4594 37.8656 18.4594V19.1094ZM39.7719 18.3047L40.2708 18.7213C40.85 18.0276 41.0938 17.0951 41.0938 16.0156H40.4438H39.7938C39.7938 16.9153 39.5896 17.5088 39.2729 17.8881L39.7719 18.3047ZM40.4438 16.0156H41.0938C41.0938 14.9272 40.8507 13.9877 40.2728 13.2889L39.7719 13.7031L39.271 14.1173C39.5889 14.5019 39.7938 15.1041 39.7938 16.0156H40.4438ZM39.7719 13.7031L40.2752 13.2918C39.6858 12.5707 38.849 12.2406 37.8656 12.2406V12.8906V13.5406C38.5385 13.5406 38.9725 13.7522 39.2686 14.1145L39.7719 13.7031ZM45.0875 22.6953L44.5675 22.3053L44.5643 22.3096L45.0875 22.6953ZM41.7594 23.5156H41.1094V23.9228L41.4758 24.1005L41.7594 23.5156ZM41.7594 22.3203L42.0971 21.7649L41.1094 21.1643V22.3203H41.7594ZM44.6031 12V11.35H43.9531V12H44.6031ZM45.8844 12H46.5344V11.35H45.8844V12ZM44.6734 8.54688L45.1255 9.01403L45.1331 9.00649L44.6734 8.54688ZM45.8531 8.54688L45.3935 9.00649L45.4009 9.01391L45.4086 9.02107L45.8531 8.54688ZM45.8531 9.72656L45.4008 9.25965L45.3935 9.26694L45.8531 9.72656ZM45.8844 19.6641H45.2344C45.2344 20.9007 44.9824 21.7521 44.5675 22.3053L45.0875 22.6953L45.6075 23.0853C46.2551 22.2218 46.5344 21.0524 46.5344 19.6641H45.8844ZM45.0875 22.6953L44.5643 22.3096C44.1756 22.8368 43.6261 23.1156 42.8219 23.1156V23.7656V24.4156C43.9864 24.4156 44.9473 23.9809 45.6107 23.081L45.0875 22.6953ZM42.8219 23.7656V23.1156C42.5602 23.1156 42.3027 23.0567 42.043 22.9307L41.7594 23.5156L41.4758 24.1005C41.9036 24.3079 42.3543 24.4156 42.8219 24.4156V23.7656ZM41.7594 23.5156H42.4094V22.3203H41.7594H41.1094V23.5156H41.7594ZM41.7594 22.3203L41.4216 22.8757C41.8778 23.1531 42.3585 23.3219 42.8531 23.3219V22.6719V22.0219C42.6602 22.0219 42.4118 21.9563 42.0971 21.7649L41.7594 22.3203ZM42.8531 22.6719V23.3219C43.644 23.3219 44.2977 22.987 44.7167 22.3174C45.1038 21.6987 45.2531 20.854 45.2531 19.875H44.6031H43.9531C43.9531 20.7605 43.8108 21.3143 43.6146 21.6279C43.4502 21.8906 43.2289 22.0219 42.8531 22.0219V22.6719ZM44.6031 19.875H45.2531V12H44.6031H43.9531V19.875H44.6031ZM44.6031 12V12.65H45.8844V12V11.35H44.6031V12ZM45.8844 12H45.2344V19.6641H45.8844H46.5344V12H45.8844ZM45.2594 9.96875V9.31875C45.1952 9.31875 45.163 9.30363 45.1255 9.26728L44.6734 9.73438L44.2214 10.2015C44.5068 10.4776 44.8653 10.6187 45.2594 10.6187V9.96875ZM44.6734 9.73438L45.1255 9.26728C45.0996 9.24225 45.0812 9.21713 45.0812 9.14062H44.4312H43.7812C43.7812 9.54329 43.9244 9.914 44.2214 10.2015L44.6734 9.73438ZM44.4312 9.14062H45.0812C45.0812 9.06412 45.0996 9.039 45.1255 9.01397L44.6734 8.54688L44.2214 8.07978C43.9244 8.36725 43.7812 8.73796 43.7812 9.14062H44.4312ZM44.6734 8.54688L45.1331 9.00649C45.1721 8.96743 45.2019 8.95469 45.2594 8.95469V8.30469V7.65469C44.8585 7.65469 44.4977 7.8034 44.2138 8.08726L44.6734 8.54688ZM45.2594 8.30469V8.95469C45.3265 8.95469 45.3575 8.9705 45.3935 9.00649L45.8531 8.54688L46.3127 8.08726C46.0258 7.80034 45.661 7.65469 45.2594 7.65469V8.30469ZM45.8531 8.54688L45.4086 9.02107C45.4371 9.04787 45.4531 9.07086 45.4531 9.14062H46.1031H46.7531C46.7531 8.73122 46.6024 8.35838 46.2977 8.07268L45.8531 8.54688ZM46.1031 9.14062H45.4531C45.4531 9.19134 45.4429 9.21895 45.4009 9.25971L45.8531 9.72656L46.3054 10.1934C46.5967 9.91126 46.7531 9.54824 46.7531 9.14062H46.1031ZM45.8531 9.72656L45.3935 9.26694C45.3575 9.30294 45.3265 9.31875 45.2594 9.31875V9.96875V10.6187C45.661 10.6187 46.0258 10.4731 46.3127 10.1862L45.8531 9.72656ZM55.7078 16.3203V16.9703H56.3578V16.3203H55.7078ZM50.0594 16.3203V15.6703H49.394L49.4096 16.3355L50.0594 16.3203ZM55.1531 18.2188H55.8031V16.8809L54.7514 17.7078L55.1531 18.2188ZM55.1531 19.4219L55.535 19.9479L55.8031 19.7532V19.4219H55.1531ZM49.7 19.1016L49.2134 19.5325L49.215 19.5343L49.7 19.1016ZM49.7859 12.9922L49.303 12.5572L49.3028 12.5574L49.7859 12.9922ZM54.3953 15.2344V15.8844H55.0499L55.0453 15.2298L54.3953 15.2344ZM53.8563 13.5078L53.3605 13.9282L53.3636 13.9319L53.8563 13.5078ZM50.075 15.2344L49.4314 15.1431L49.3263 15.8844H50.075V15.2344ZM55.7078 16.3203V15.6703H50.0594V16.3203V16.9703H55.7078V16.3203ZM50.0594 16.3203L49.4096 16.3355C49.4329 17.3321 49.7043 18.1937 50.306 18.8296L50.7781 18.3828L51.2503 17.9361C50.9353 17.6032 50.7276 17.0898 50.7092 16.3051L50.0594 16.3203ZM50.7781 18.3828L50.306 18.8296C50.9116 19.4696 51.7271 19.7594 52.6688 19.7594V19.1094V18.4594C52.0062 18.4594 51.5613 18.2648 51.2503 17.9361L50.7781 18.3828ZM52.6688 19.1094V19.7594C53.7255 19.7594 54.6932 19.4072 55.5549 18.7297L55.1531 18.2188L54.7514 17.7078C54.1026 18.2178 53.4141 18.4594 52.6688 18.4594V19.1094ZM55.1531 18.2188H54.5031V19.4219H55.1531H55.8031V18.2188H55.1531ZM55.1531 19.4219L54.7713 18.8959C54.2107 19.3028 53.4281 19.5375 52.3641 19.5375V20.1875V20.8375C53.6126 20.8375 54.6893 20.5618 55.535 19.9479L55.1531 19.4219ZM52.3641 20.1875V19.5375C51.3855 19.5375 50.6868 19.2313 50.185 18.6689L49.7 19.1016L49.215 19.5343C50.0049 20.4197 51.0822 20.8375 52.3641 20.8375V20.1875ZM49.7 19.1016L50.1866 18.6706C49.6783 18.0967 49.3813 17.2467 49.3813 16.0312H48.7313H48.0813C48.0813 17.4512 48.43 18.6481 49.2134 19.5325L49.7 19.1016ZM48.7313 16.0312H49.3813C49.3813 14.9157 49.6926 14.0675 50.2691 13.427L49.7859 12.9922L49.3028 12.5574C48.473 13.4794 48.0813 14.6572 48.0813 16.0312H48.7313ZM49.7859 12.9922L50.2689 13.4272C50.8555 12.7759 51.5584 12.4625 52.4188 12.4625V11.8125V11.1625C51.1854 11.1625 50.133 11.6356 49.303 12.5572L49.7859 12.9922ZM52.4188 11.8125V12.4625C53.3126 12.4625 53.9255 12.7437 54.3522 13.248L54.8484 12.8281L55.3446 12.4083C54.6255 11.5584 53.6187 11.1625 52.4188 11.1625V11.8125ZM54.8484 12.8281L54.3522 13.248C54.7954 13.7717 55.0578 14.5441 55.0578 15.6484H55.7078H56.3578C56.3578 14.3465 56.0474 13.2387 55.3446 12.4083L54.8484 12.8281ZM55.7078 15.6484H55.0578V16.3203H55.7078H56.3578V15.6484H55.7078ZM54.3953 15.2344L55.0453 15.2298C55.0394 14.392 54.8348 13.6483 54.3489 13.0838L53.8563 13.5078L53.3636 13.9319C53.586 14.1902 53.7408 14.5975 53.7453 15.239L54.3953 15.2344ZM53.8563 13.5078L54.352 13.0874C53.8593 12.5065 53.1776 12.2406 52.3953 12.2406V12.8906V13.5406C52.863 13.5406 53.1553 13.6862 53.3605 13.9282L53.8563 13.5078ZM52.3953 12.8906V12.2406C51.6161 12.2406 50.9353 12.5274 50.3911 13.0851L50.8563 13.5391L51.3214 13.993C51.621 13.6861 51.9662 13.5406 52.3953 13.5406V12.8906ZM50.8563 13.5391L50.3911 13.0851C49.8573 13.6321 49.5464 14.332 49.4314 15.1431L50.075 15.2344L50.7186 15.3256C50.8015 14.7409 51.0115 14.3106 51.3214 13.993L50.8563 13.5391ZM50.075 15.2344V15.8844H54.3953V15.2344V14.5844H50.075V15.2344ZM63.9062 19.6328L64.2414 20.1898L64.5562 20.0003V19.6328H63.9062ZM58.9531 19.0781L58.4788 19.5226L58.482 19.526L58.9531 19.0781ZM59.0391 13.0156L59.5109 13.4627L59.5123 13.4612L59.0391 13.0156ZM63.9219 12.2031H64.5719V11.7961L64.2057 11.6184L63.9219 12.2031ZM63.9219 13.5156L63.5485 14.0477L64.5719 14.7658V13.5156H63.9219ZM60 13.7734L59.5154 13.3403L59.5151 13.3405L60 13.7734ZM59.9531 18.2969L59.4709 18.7327L59.4732 18.7353L59.9531 18.2969ZM63.9062 18.4141H64.5562V17.1097L63.5148 17.8951L63.9062 18.4141ZM63.9062 19.6328L63.5711 19.0759C63.0744 19.3748 62.4655 19.5375 61.7188 19.5375V20.1875V20.8375C62.6595 20.8375 63.509 20.6304 64.2414 20.1898L63.9062 19.6328ZM61.7188 20.1875V19.5375C60.7331 19.5375 59.9896 19.2249 59.4242 18.6303L58.9531 19.0781L58.482 19.526C59.3229 20.4105 60.4232 20.8375 61.7188 20.8375V20.1875ZM58.9531 19.0781L59.4274 18.6337C58.8602 18.0283 58.5562 17.2327 58.5562 16.1875H57.9062H57.2563C57.2563 17.5069 57.6502 18.6383 58.4788 19.5226L58.9531 19.0781ZM57.9062 16.1875H58.5562C58.5562 15.0008 58.8923 14.1154 59.5109 13.4627L59.0391 13.0156L58.5673 12.5685C57.6754 13.5096 57.2563 14.7388 57.2563 16.1875H57.9062ZM59.0391 13.0156L59.5123 13.4612C60.1265 12.8089 60.9529 12.4625 62.0625 12.4625V11.8125V11.1625C60.6512 11.1625 59.462 11.6182 58.5658 12.57L59.0391 13.0156ZM62.0625 11.8125V12.4625C62.6848 12.4625 63.2045 12.5774 63.638 12.7879L63.9219 12.2031L64.2057 11.6184C63.5663 11.308 62.8465 11.1625 62.0625 11.1625V11.8125ZM63.9219 12.2031H63.2719V13.5156H63.9219H64.5719V12.2031H63.9219ZM63.9219 13.5156L64.2953 12.9836C63.6004 12.4959 62.836 12.2406 62.0156 12.2406V12.8906V13.5406C62.5494 13.5406 63.0559 13.702 63.5485 14.0477L63.9219 13.5156ZM62.0156 12.8906V12.2406C61.0204 12.2406 60.1697 12.6082 59.5154 13.3403L60 13.7734L60.4846 14.2066C60.8824 13.7616 61.3754 13.5406 62.0156 13.5406V12.8906ZM60 13.7734L59.5151 13.3405C58.8659 14.0677 58.5688 15.0019 58.5688 16.0781H59.2188H59.8687C59.8687 15.2481 60.0925 14.6458 60.4849 14.2063L60 13.7734ZM59.2188 16.0781H58.5688C58.5688 17.1295 58.8454 18.0407 59.4709 18.7327L59.9531 18.2969L60.4353 17.861C60.0817 17.4697 59.8687 16.9017 59.8687 16.0781H59.2188ZM59.9531 18.2969L59.4732 18.7353C60.1077 19.4298 60.9528 19.7594 61.9375 19.7594V19.1094V18.4594C61.2659 18.4594 60.7882 18.2473 60.433 17.8585L59.9531 18.2969ZM61.9375 19.1094V19.7594C62.7913 19.7594 63.5826 19.4724 64.2977 18.933L63.9062 18.4141L63.5148 17.8951C63.0008 18.2829 62.4796 18.4594 61.9375 18.4594V19.1094ZM63.9062 18.4141H63.2563V19.6328H63.9062H64.5562V18.4141H63.9062ZM70.3547 19.9219L70.6687 20.491L71.0047 20.3056V19.9219H70.3547ZM67.0578 13.0938H67.7078V12.4438H67.0578V13.0938ZM65.6828 13.0938H65.0328V13.7437H65.6828V13.0938ZM65.6828 12V11.35H65.0328V12H65.6828ZM67.0578 12V12.65H67.7078V12H67.0578ZM67.0578 10.0469L66.8579 9.42837L66.4078 9.57384V10.0469H67.0578ZM68.3391 9.63281H68.9891V8.73965L68.1392 9.01431L68.3391 9.63281ZM68.3391 12H67.6891V12.65H68.3391V12ZM70.3547 12H71.0047V11.35H70.3547V12ZM70.3547 13.0938V13.7437H71.0047V13.0938H70.3547ZM68.3391 13.0938V12.4438H67.6891V13.0938H68.3391ZM70.3547 18.8281H71.0047V17.5223L69.9628 18.3095L70.3547 18.8281ZM70.3547 19.9219L70.0407 19.3527C69.8675 19.4483 69.5891 19.5219 69.1594 19.5219V20.1719V20.8219C69.7193 20.8219 70.2377 20.7288 70.6687 20.491L70.3547 19.9219ZM69.1594 20.1719V19.5219C68.5785 19.5219 68.2565 19.3632 68.0671 19.152C67.8657 18.9273 67.7078 18.5256 67.7078 17.8281H67.0578H66.4078C66.4078 18.6931 66.6002 19.4633 67.0993 20.0199C67.6104 20.59 68.3392 20.8219 69.1594 20.8219V20.1719ZM67.0578 17.8281H67.7078V13.0938H67.0578H66.4078V17.8281H67.0578ZM67.0578 13.0938V12.4438H65.6828V13.0938V13.7437H67.0578V13.0938ZM65.6828 13.0938H66.3328V12H65.6828H65.0328V13.0938H65.6828ZM65.6828 12V12.65H67.0578V12V11.35H65.6828V12ZM67.0578 12H67.7078V10.0469H67.0578H66.4078V12H67.0578ZM67.0578 10.0469L67.2577 10.6654L68.5389 10.2513L68.3391 9.63281L68.1392 9.01431L66.8579 9.42837L67.0578 10.0469ZM68.3391 9.63281H67.6891V12H68.3391H68.9891V9.63281H68.3391ZM68.3391 12V12.65H70.3547V12V11.35H68.3391V12ZM70.3547 12H69.7047V13.0938H70.3547H71.0047V12H70.3547ZM70.3547 13.0938V12.4438H68.3391V13.0938V13.7437H70.3547V13.0938ZM68.3391 13.0938H67.6891V17.6016H68.3391H68.9891V13.0938H68.3391ZM68.3391 17.6016H67.6891C67.6891 18.1776 67.7802 18.7479 68.1038 19.1546L68.6125 18.75L69.1212 18.3454C69.0802 18.2938 68.9891 18.0985 68.9891 17.6016H68.3391ZM68.6125 18.75L68.1038 19.1546C68.4567 19.5983 68.9898 19.7437 69.5187 19.7437V19.0938V18.4438C69.204 18.4438 69.1329 18.3601 69.1212 18.3454L68.6125 18.75ZM69.5187 19.0938V19.7437C69.9683 19.7437 70.388 19.6176 70.7465 19.3467L70.3547 18.8281L69.9628 18.3095C69.8526 18.3928 69.7151 18.4438 69.5187 18.4438V19.0938ZM70.3547 18.8281H69.7047V19.9219H70.3547H71.0047V18.8281H70.3547ZM72.3812 19.7109H71.7312V20.1035L72.0787 20.2862L72.3812 19.7109ZM72.3812 18.3359L72.7675 17.8131L71.7312 17.0476V18.3359H72.3812ZM76.225 17.4453L75.6727 17.7881L75.6797 17.7993L75.6871 17.8103L76.225 17.4453ZM75.8344 17.0469L75.4581 17.577L75.4661 17.5825L75.8344 17.0469ZM75.2562 16.7422L75.0002 17.3396L75.0087 17.3433L75.0173 17.3467L75.2562 16.7422ZM74.5453 16.4531L74.3054 17.0573L74.3103 17.0592L74.5453 16.4531ZM73.6078 16.0312L73.295 16.601L73.3016 16.6047L73.3083 16.6081L73.6078 16.0312ZM72.9359 15.5469L72.4697 15.9998L72.4763 16.0065L72.483 16.0131L72.9359 15.5469ZM72.5297 14.9297L71.9233 15.164L71.9281 15.1758L72.5297 14.9297ZM72.6547 13.1328L73.2121 13.4672L73.2147 13.4628L72.6547 13.1328ZM73.3422 12.4062L73.705 12.9456L73.7117 12.941L73.3422 12.4062ZM74.3187 11.9609L74.1507 11.333L74.1485 11.3336L74.3187 11.9609ZM77.3187 12.1719H77.9687V11.747L77.5796 11.5765L77.3187 12.1719ZM77.3187 13.4688L76.9626 14.0125L77.9687 14.6714V13.4688H77.3187ZM74.6391 12.9766L74.8087 13.604L74.8165 13.6019L74.8243 13.5996L74.6391 12.9766ZM74.1391 13.2031L73.7649 12.6715L73.7556 12.6783L74.1391 13.2031ZM73.8187 13.5625L73.2505 13.2468L73.2464 13.2543L73.8187 13.5625ZM73.8187 14.5391L73.2417 14.8383L73.246 14.8466L73.2505 14.8547L73.8187 14.5391ZM75.3969 15.5L75.1596 16.1052L75.1647 16.1071L75.3969 15.5ZM76.35 15.9219L76.0508 16.499L76.0593 16.5033L76.35 15.9219ZM77.0687 16.4062L76.6283 16.8844L76.6353 16.8907L77.0687 16.4062ZM77.5219 17.0234L76.9278 17.2875L76.9329 17.2983L77.5219 17.0234ZM77.4203 18.8906L76.8647 18.5533L76.8603 18.5606L77.4203 18.8906ZM72.3812 19.7109H73.0312V18.3359H72.3812H71.7312V19.7109H72.3812ZM72.3812 18.3359L71.995 18.8587C72.8006 19.4539 73.7033 19.7594 74.6859 19.7594V19.1094V18.4594C73.9915 18.4594 73.3578 18.2492 72.7675 17.8131L72.3812 18.3359ZM74.6859 19.1094V19.7594C75.3001 19.7594 75.8744 19.6607 76.3121 19.369C76.7963 19.0462 77.0234 18.5487 77.0234 17.9844H76.3734H75.7234C75.7234 18.17 75.6693 18.2351 75.591 18.2873C75.4662 18.3705 75.1967 18.4594 74.6859 18.4594V19.1094ZM76.3734 17.9844H77.0234C77.0234 17.6686 76.9491 17.3549 76.7629 17.0803L76.225 17.4453L75.6871 17.8103C75.6988 17.8274 75.7234 17.8731 75.7234 17.9844H76.3734ZM76.225 17.4453L76.7773 17.1025C76.6301 16.8654 76.4331 16.6697 76.2026 16.5112L75.8344 17.0469L75.4661 17.5825C75.569 17.6532 75.6324 17.7232 75.6727 17.7881L76.225 17.4453ZM75.8344 17.0469L76.2106 16.5168C75.9985 16.3663 75.7577 16.2415 75.4952 16.1377L75.2562 16.7422L75.0173 17.3467C75.2027 17.42 75.3473 17.4983 75.4582 17.577L75.8344 17.0469ZM75.2562 16.7422L75.5123 16.1447C75.2856 16.0476 75.0416 15.9484 74.7803 15.8471L74.5453 16.4531L74.3103 17.0592C74.5595 17.1558 74.7894 17.2493 75.0002 17.3396L75.2562 16.7422ZM74.5453 16.4531L74.7852 15.849C74.4466 15.7146 74.1547 15.5828 73.9073 15.4544L73.6078 16.0312L73.3083 16.6081C73.6026 16.7609 73.9357 16.9104 74.3054 17.0572L74.5453 16.4531ZM73.6078 16.0312L73.9206 15.4615C73.6966 15.3385 73.5222 15.2102 73.3888 15.0806L72.9359 15.5469L72.483 16.0131C72.7143 16.2377 72.9877 16.4323 73.295 16.601L73.6078 16.0312ZM72.9359 15.5469L73.4022 15.094C73.2815 14.9697 73.1927 14.8337 73.1313 14.6836L72.5297 14.9297L71.9281 15.1758C72.0542 15.484 72.2362 15.7595 72.4697 15.9998L72.9359 15.5469ZM72.5297 14.9297L73.136 14.6954C73.0826 14.5571 73.0469 14.3715 73.0469 14.125H72.3969H71.7469C71.7469 14.4931 71.7997 14.8439 71.9234 15.1639L72.5297 14.9297ZM72.3969 14.125H73.0469C73.0469 13.853 73.108 13.6407 73.2121 13.4672L72.6547 13.1328L72.0973 12.7984C71.8576 13.1978 71.7469 13.647 71.7469 14.125H72.3969ZM72.6547 13.1328L73.2147 13.4628C73.3363 13.2565 73.4974 13.0852 73.705 12.9456L73.3422 12.4062L72.9794 11.8669C72.614 12.1127 72.3168 12.4258 72.0947 12.8028L72.6547 13.1328ZM73.3422 12.4062L73.7117 12.941C73.9325 12.7885 74.1896 12.6695 74.489 12.5882L74.3187 11.9609L74.1485 11.3336C73.7188 11.4503 73.3248 11.6282 72.9727 11.8715L73.3422 12.4062ZM74.3187 11.9609L74.4868 12.5888C74.8006 12.5049 75.1243 12.4625 75.4594 12.4625V11.8125V11.1625C75.0132 11.1625 74.5764 11.2191 74.1507 11.333L74.3187 11.9609ZM75.4594 11.8125V12.4625C76.0766 12.4625 76.6054 12.569 77.0579 12.7672L77.3187 12.1719L77.5796 11.5765C76.9383 11.2956 76.2276 11.1625 75.4594 11.1625V11.8125ZM77.3187 12.1719H76.6687V13.4688H77.3187H77.9687V12.1719H77.3187ZM77.3187 13.4688L77.6748 12.925C76.9711 12.4641 76.168 12.2406 75.2875 12.2406V12.8906V13.5406C75.9383 13.5406 76.4893 13.7025 76.9626 14.0125L77.3187 13.4688ZM75.2875 12.8906V12.2406C74.9968 12.2406 74.7169 12.2753 74.4538 12.3535L74.6391 12.9766L74.8243 13.5996C74.9467 13.5632 75.099 13.5406 75.2875 13.5406V12.8906ZM74.6391 12.9766L74.4695 12.3491C74.2151 12.4178 73.9768 12.5225 73.765 12.6716L74.1391 13.2031L74.5131 13.7347C74.5826 13.6858 74.6776 13.6395 74.8087 13.604L74.6391 12.9766ZM74.1391 13.2031L73.7556 12.6783C73.5475 12.8304 73.3763 13.0204 73.2505 13.2468L73.8187 13.5625L74.387 13.8782C74.4174 13.8233 74.4598 13.7738 74.5226 13.7279L74.1391 13.2031ZM73.8187 13.5625L73.2464 13.2543C73.1183 13.4923 73.0594 13.7506 73.0594 14.0156H73.7094H74.3594C74.3594 13.9473 74.3733 13.9036 74.3911 13.8707L73.8187 13.5625ZM73.7094 14.0156H73.0594C73.0594 14.2965 73.1082 14.5807 73.2417 14.8383L73.8187 14.5391L74.3958 14.2399C74.3835 14.2162 74.3594 14.1514 74.3594 14.0156H73.7094ZM73.8187 14.5391L73.2505 14.8547C73.3786 15.0852 73.5555 15.2772 73.7647 15.4341L74.1547 14.9141L74.5447 14.3941C74.4622 14.3322 74.4151 14.2742 74.387 14.2234L73.8187 14.5391ZM74.1547 14.9141L73.7647 15.4341C73.9611 15.5814 74.1862 15.7048 74.4317 15.8092L74.6859 15.2109L74.9402 14.6127C74.769 14.54 74.6399 14.4655 74.5447 14.3941L74.1547 14.9141ZM74.6859 15.2109L74.4317 15.8092C74.6469 15.9006 74.8896 15.9993 75.1596 16.1051L75.3969 15.5L75.6342 14.8949C75.3728 14.7924 75.1417 14.6984 74.9402 14.6127L74.6859 15.2109ZM75.3969 15.5L75.1647 16.1071C75.5003 16.2354 75.795 16.3663 76.0508 16.4989L76.35 15.9219L76.6492 15.3448C76.3424 15.1858 76.0018 15.0354 75.629 14.8929L75.3969 15.5ZM76.35 15.9219L76.0593 16.5033C76.295 16.6211 76.4821 16.7496 76.6284 16.8844L77.0687 16.4062L77.5091 15.9281C77.2596 15.6983 76.9675 15.5039 76.6407 15.3405L76.35 15.9219ZM77.0687 16.4062L76.6353 16.8907C76.7672 17.0087 76.8624 17.1401 76.9279 17.2874L77.5219 17.0234L78.1159 16.7594C77.973 16.4381 77.7661 16.158 77.5022 15.9218L77.0687 16.4062ZM77.5219 17.0234L76.9329 17.2983C76.9934 17.428 77.0359 17.6085 77.0359 17.8594H77.6859H78.3359C78.3359 17.4644 78.2691 17.0876 78.1109 16.7486L77.5219 17.0234ZM77.6859 17.8594H77.0359C77.0359 18.1556 76.9707 18.3787 76.8647 18.5533L77.4203 18.8906L77.9759 19.228C78.2241 18.8192 78.3359 18.3548 78.3359 17.8594H77.6859ZM77.4203 18.8906L76.8603 18.5606C76.7403 18.7643 76.5786 18.9348 76.3667 19.0749L76.725 19.6172L77.0833 20.1595C77.4547 19.9141 77.7566 19.6003 77.9803 19.2206L77.4203 18.8906ZM76.725 19.6172L76.3667 19.0749C76.144 19.222 75.8782 19.3377 75.5616 19.4158L75.7172 20.0469L75.8728 20.678C76.3166 20.5686 76.7227 20.3978 77.0833 20.1595L76.725 19.6172ZM75.7172 20.0469L75.5616 19.4158C75.2354 19.4962 74.8894 19.5375 74.5219 19.5375V20.1875V20.8375C74.9876 20.8375 75.4385 20.7851 75.8728 20.678L75.7172 20.0469ZM74.5219 20.1875V19.5375C73.7829 19.5375 73.1773 19.3952 72.6838 19.1356L72.3812 19.7109L72.0787 20.2862C72.7935 20.6621 73.615 20.8375 74.5219 20.8375V20.1875Z" fill="black" mask="url(#path-1-outside-1_5_22)"/>
<rect x="1.5" y="1.5" width="94" height="26" rx="3.5" stroke="black" stroke-width="3"/>
</svg>
